<svg width="24" height="19" viewBox="0 0 24 19" fill="none" xmlns="http://www.w3.org/2000/svg">
<path d="M23.5 3.20124H22.0718V2.12655C22.0718 2.02857 22.0431 1.93275 21.9891 1.85099C21.9351 1.76923 21.8582 1.70514 21.7681 1.66668C18.7519 0.379117 15.041 0.924813 12 3.0817C8.95904 0.924813 5.24799 0.379269 2.23189 1.66668C2.14177 1.70514 2.06494 1.76923 2.01095 1.85099C1.95695 1.93275 1.92816 2.02857 1.92817 2.12655V3.20124H0.499993C0.223895 3.20124 0 3.42508 0 3.70123V17.5214C0 17.7976 0.223895 18.0214 0.499993 18.0214H23.5C23.7762 18.0214 24 17.7975 24 17.5214V3.70128C24 3.42513 23.7762 3.20124 23.5 3.20124ZM0.999985 17.0214V4.20127H1.92817V15.9467C1.92818 16.0294 1.9487 16.1108 1.98787 16.1836C2.02705 16.2564 2.08366 16.3183 2.15264 16.3639C2.22163 16.4094 2.30083 16.4372 2.38316 16.4446C2.46549 16.4521 2.54839 16.439 2.62443 16.4066C4.96646 15.4068 7.79478 15.6568 10.3051 17.0214H0.999985ZM11.5 16.5654C9.67516 15.4025 7.64517 14.7987 5.68568 14.7987C4.73967 14.7987 3.81022 14.9394 2.9282 15.2259V3.70707C2.9282 3.70509 2.92851 3.70321 2.92851 3.70128C2.92851 3.69935 2.92825 3.69742 2.9282 3.69549V2.46476C5.59508 1.46518 8.82884 2.02418 11.5 3.95341V16.5654ZM12.5 3.95341C15.1712 2.02413 18.4051 1.46518 21.0718 2.46476V3.69544C21.0718 3.69737 21.0715 3.6993 21.0715 3.70123C21.0715 3.70316 21.0718 3.70509 21.0718 3.70702V15.2258C18.3628 14.3458 15.2058 14.8411 12.5 16.5653V3.95341ZM23 17.0214H13.6949C16.2052 15.6568 19.0335 15.4068 21.3756 16.4066C21.4516 16.439 21.5345 16.4521 21.6168 16.4447C21.6992 16.4372 21.7784 16.4095 21.8474 16.3639C21.9164 16.3184 21.973 16.2564 22.0122 16.1836C22.0513 16.1108 22.0718 16.0294 22.0718 15.9467V4.20127H23V17.0214Z" fill="#303030"/>
</svg>
