<svg width="49" height="48" viewBox="0 0 49 48" fill="none" xmlns="http://www.w3.org/2000/svg">
<path d="M19.1455 18.5053C19.3445 18.5053 19.5352 18.4263 19.6759 18.2856C19.8165 18.145 19.8955 17.9542 19.8955 17.7553V15.6448C19.8955 15.4459 19.8165 15.2551 19.6759 15.1144C19.5352 14.9738 19.3445 14.8948 19.1455 14.8948C18.9466 14.8948 18.7559 14.9738 18.6152 15.1144C18.4746 15.2551 18.3955 15.4459 18.3955 15.6448V17.7553C18.3955 17.9542 18.4746 18.145 18.6152 18.2856C18.7559 18.4263 18.9466 18.5053 19.1455 18.5053ZM24.5005 18.5053C24.6995 18.5053 24.8902 18.4263 25.0309 18.2856C25.1715 18.145 25.2505 17.9542 25.2505 17.7553V15.6448C25.2505 15.4459 25.1715 15.2551 25.0309 15.1144C24.8902 14.9738 24.6995 14.8948 24.5005 14.8948C24.3016 14.8948 24.1109 14.9738 23.9702 15.1144C23.8296 15.2551 23.7505 15.4459 23.7505 15.6448V17.7553C23.7505 17.9542 23.8296 18.145 23.9702 18.2856C24.1109 18.4263 24.3016 18.5053 24.5005 18.5053ZM29.8555 18.5053C30.0545 18.5053 30.2452 18.4263 30.3859 18.2856C30.5265 18.145 30.6055 17.9542 30.6055 17.7553V15.6448C30.6055 15.4459 30.5265 15.2551 30.3859 15.1144C30.2452 14.9738 30.0545 14.8948 29.8555 14.8948C29.6566 14.8948 29.4659 14.9738 29.3252 15.1144C29.1846 15.2551 29.1055 15.4459 29.1055 15.6448V17.7553C29.1055 17.9542 29.1846 18.145 29.3252 18.2856C29.4659 18.4263 29.6566 18.5053 29.8555 18.5053ZM19.1455 25.4825C19.3445 25.4825 19.5352 25.4035 19.6759 25.2629C19.8165 25.1222 19.8955 24.9314 19.8955 24.7325V22.622C19.8955 22.4231 19.8165 22.2323 19.6759 22.0917C19.5352 21.951 19.3445 21.872 19.1455 21.872C18.9466 21.872 18.7559 21.951 18.6152 22.0917C18.4746 22.2323 18.3955 22.4231 18.3955 22.622V24.7325C18.3955 24.9314 18.4746 25.1222 18.6152 25.2629C18.7559 25.4035 18.9466 25.4825 19.1455 25.4825ZM24.5005 25.4825C24.6995 25.4825 24.8902 25.4035 25.0309 25.2629C25.1715 25.1222 25.2505 24.9314 25.2505 24.7325V22.622C25.2505 22.4231 25.1715 22.2323 25.0309 22.0917C24.8902 21.951 24.6995 21.872 24.5005 21.872C24.3016 21.872 24.1109 21.951 23.9702 22.0917C23.8296 22.2323 23.7505 22.4231 23.7505 22.622V24.7325C23.7505 24.9314 23.8296 25.1222 23.9702 25.2629C24.1109 25.4035 24.3016 25.4825 24.5005 25.4825ZM29.8555 25.4825C30.0545 25.4825 30.2452 25.4035 30.3859 25.2629C30.5265 25.1222 30.6055 24.9314 30.6055 24.7325V22.622C30.6055 22.4231 30.5265 22.2323 30.3859 22.0917C30.2452 21.951 30.0545 21.872 29.8555 21.872C29.6566 21.872 29.4659 21.951 29.3252 22.0917C29.1846 22.2323 29.1055 22.4231 29.1055 22.622V24.7325C29.1055 24.9314 29.1846 25.1222 29.3252 25.2629C29.4659 25.4035 29.6566 25.4825 29.8555 25.4825ZM19.8955 31.7098V29.5993C19.8955 29.4004 19.8165 29.2096 19.6759 29.0689C19.5352 28.9283 19.3445 28.8493 19.1455 28.8493C18.9466 28.8493 18.7559 28.9283 18.6152 29.0689C18.4746 29.2096 18.3955 29.4004 18.3955 29.5993V31.7098C18.3955 31.9087 18.4746 32.0995 18.6152 32.2401C18.7559 32.3808 18.9466 32.4598 19.1455 32.4598C19.3445 32.4598 19.5352 32.3808 19.6759 32.2401C19.8165 32.0995 19.8955 31.9087 19.8955 31.7098ZM24.5005 32.4598C24.6995 32.4598 24.8902 32.3808 25.0309 32.2401C25.1715 32.0995 25.2505 31.9087 25.2505 31.7098V29.5993C25.2505 29.4004 25.1715 29.2096 25.0309 29.0689C24.8902 28.9283 24.6995 28.8493 24.5005 28.8493C24.3016 28.8493 24.1109 28.9283 23.9702 29.0689C23.8296 29.2096 23.7505 29.4004 23.7505 29.5993V31.7098C23.7505 31.9087 23.8296 32.0995 23.9702 32.2401C24.1109 32.3808 24.3016 32.4598 24.5005 32.4598ZM29.8555 32.4598C30.0545 32.4598 30.2452 32.3808 30.3859 32.2401C30.5265 32.0995 30.6055 31.9087 30.6055 31.7098V29.5993C30.6055 29.4004 30.5265 29.2096 30.3859 29.0689C30.2452 28.9283 30.0545 28.8493 29.8555 28.8493C29.6566 28.8493 29.4659 28.9283 29.3252 29.0689C29.1846 29.2096 29.1055 29.4004 29.1055 29.5993V31.7098C29.1055 31.9087 29.1846 32.0995 29.3252 32.2401C29.4659 32.3808 29.6566 32.4598 29.8555 32.4598ZM10.0293 23.9825C9.83038 23.9825 9.63962 24.0615 9.49897 24.2022C9.35831 24.3428 9.2793 24.5336 9.2793 24.7325V26.3158C9.2793 26.5147 9.35831 26.7055 9.49897 26.8461C9.63962 26.9868 9.83038 27.0658 10.0293 27.0658C10.2282 27.0658 10.419 26.9868 10.5596 26.8461C10.7003 26.7055 10.7793 26.5147 10.7793 26.3158V24.7325C10.7793 24.5336 10.7003 24.3428 10.5596 24.2022C10.419 24.0615 10.2282 23.9825 10.0293 23.9825ZM10.0293 30.9598C9.83038 30.9598 9.63962 31.0388 9.49897 31.1794C9.35831 31.3201 9.2793 31.5109 9.2793 31.7098V33.293C9.2793 33.4919 9.35831 33.6827 9.49897 33.8234C9.63962 33.964 9.83038 34.043 10.0293 34.043C10.2282 34.043 10.419 33.964 10.5596 33.8234C10.7003 33.6827 10.7793 33.4919 10.7793 33.293V31.7098C10.7793 31.5109 10.7003 31.3201 10.5596 31.1794C10.419 31.0388 10.2282 30.9598 10.0293 30.9598ZM10.0293 37.937C9.83038 37.937 9.63962 38.016 9.49897 38.1567C9.35831 38.2973 9.2793 38.4881 9.2793 38.687V40.2703C9.2793 40.4692 9.35831 40.66 9.49897 40.8006C9.63962 40.9413 9.83038 41.0203 10.0293 41.0203C10.2282 41.0203 10.419 40.9413 10.5596 40.8006C10.7003 40.66 10.7793 40.4692 10.7793 40.2703V38.687C10.7793 38.4881 10.7003 38.2973 10.5596 38.1567C10.419 38.016 10.2282 37.937 10.0293 37.937Z" fill="black"/>
<path d="M46.25 43.3861H43.1698V21.3129C43.1698 21.114 43.0907 20.9232 42.9501 20.7825C42.8094 20.6419 42.6187 20.5629 42.4198 20.5629H36.275V10.3681C36.275 10.1692 36.196 9.97844 36.0553 9.83779C35.9147 9.69714 35.7239 9.61812 35.525 9.61812H32.6637V6.43812C32.6637 6.23921 32.5847 6.04844 32.4441 5.90779C32.3034 5.76714 32.1127 5.68812 31.9137 5.68812H25.25V3.85962C25.25 3.66071 25.171 3.46994 25.0303 3.32929C24.8897 3.18864 24.6989 3.10962 24.5 3.10962C24.3011 3.10962 24.1103 3.18864 23.9697 3.32929C23.829 3.46994 23.75 3.66071 23.75 3.85962V5.68812H17.0787C16.8798 5.68812 16.6891 5.76714 16.5484 5.90779C16.4078 6.04844 16.3287 6.23921 16.3287 6.43812V9.61812H13.475C13.2761 9.61812 13.0853 9.69714 12.9447 9.83779C12.804 9.97844 12.725 10.1692 12.725 10.3681V20.5629H6.575C6.37609 20.5629 6.18532 20.6419 6.04467 20.7825C5.90402 20.9232 5.825 21.114 5.825 21.3129V43.3861H2.75C2.55109 43.3861 2.36032 43.4651 2.21967 43.6058C2.07902 43.7464 2 43.9372 2 44.1361C2 44.335 2.07902 44.5258 2.21967 44.6664C2.36032 44.8071 2.55109 44.8861 2.75 44.8861H13.4555C13.463 44.8861 13.469 44.8906 13.4772 44.8906H35.525C35.5332 44.8906 35.5392 44.8861 35.5467 44.8861H46.25C46.4489 44.8861 46.6397 44.8071 46.7803 44.6664C46.921 44.5258 47 44.335 47 44.1361C47 43.9372 46.921 43.7464 46.7803 43.6058C46.6397 43.4651 46.4489 43.3861 46.25 43.3861ZM41.6698 22.0629V43.3861H36.275V22.0629H41.6698ZM17.8287 7.18812H31.1637V9.61812H17.8287V7.18812ZM7.32875 22.0629H12.7288V43.3861H7.32875V22.0629ZM14.2288 11.1181H34.775V43.3906H28.295V36.6189H29.108C29.3069 36.6189 29.4977 36.5398 29.6383 36.3992C29.779 36.2585 29.858 36.0678 29.858 35.8689C29.858 35.67 29.779 35.4792 29.6383 35.3385C29.4977 35.1979 29.3069 35.1189 29.108 35.1189H19.892C19.6931 35.1189 19.5023 35.1979 19.3617 35.3385C19.221 35.4792 19.142 35.67 19.142 35.8689C19.142 36.0678 19.221 36.2585 19.3617 36.3992C19.5023 36.5398 19.6931 36.6189 19.892 36.6189H20.705V43.3906H14.225L14.2288 11.1181ZM22.2065 36.6181H26.7965V43.3899H22.205L22.2065 36.6181Z" fill="black"/>
<path d="M38.9746 27.0662C39.1735 27.0662 39.3643 26.9871 39.5049 26.8465C39.6456 26.7058 39.7246 26.5151 39.7246 26.3162V24.7329C39.7246 24.534 39.6456 24.3432 39.5049 24.2026C39.3643 24.0619 39.1735 23.9829 38.9746 23.9829C38.7757 23.9829 38.5849 24.0619 38.4443 24.2026C38.3036 24.3432 38.2246 24.534 38.2246 24.7329V26.3162C38.2246 26.5151 38.3036 26.7058 38.4443 26.8465C38.5849 26.9871 38.7757 27.0662 38.9746 27.0662ZM38.9746 34.0434C39.1735 34.0434 39.3643 33.9644 39.5049 33.8237C39.6456 33.6831 39.7246 33.4923 39.7246 33.2934V31.7102C39.7246 31.5112 39.6456 31.3205 39.5049 31.1798C39.3643 31.0392 39.1735 30.9602 38.9746 30.9602C38.7757 30.9602 38.5849 31.0392 38.4443 31.1798C38.3036 31.3205 38.2246 31.5112 38.2246 31.7102V33.2934C38.2246 33.4923 38.3036 33.6831 38.4443 33.8237C38.5849 33.9644 38.7757 34.0434 38.9746 34.0434ZM38.9746 41.0207C39.1735 41.0207 39.3643 40.9416 39.5049 40.801C39.6456 40.6603 39.7246 40.4696 39.7246 40.2707V38.6874C39.7246 38.4885 39.6456 38.2977 39.5049 38.1571C39.3643 38.0164 39.1735 37.9374 38.9746 37.9374C38.7757 37.9374 38.5849 38.0164 38.4443 38.1571C38.3036 38.2977 38.2246 38.4885 38.2246 38.6874V40.2707C38.2246 40.4696 38.3036 40.6603 38.4443 40.801C38.5849 40.9416 38.7757 41.0207 38.9746 41.0207Z" fill="black"/>
</svg>
