<svg width="20" height="20" viewBox="0 0 20 20" fill="none" xmlns="http://www.w3.org/2000/svg">
<path d="M4.75 1.24854V3.49854M15.25 1.24854V3.49854M1 16.9985V5.74854C1 5.1518 1.23705 4.5795 1.65901 4.15755C2.08097 3.73559 2.65326 3.49854 3.25 3.49854H16.75C17.3467 3.49854 17.919 3.73559 18.341 4.15755C18.7629 4.5795 19 5.1518 19 5.74854V16.9985M1 16.9985C1 17.5953 1.23705 18.1676 1.65901 18.5895C2.08097 19.0115 2.65326 19.2485 3.25 19.2485H16.75C17.3467 19.2485 17.919 19.0115 18.341 18.5895C18.7629 18.1676 19 17.5953 19 16.9985M1 16.9985V9.49854C1 8.9018 1.23705 8.3295 1.65901 7.90755C2.08097 7.48559 2.65326 7.24854 3.25 7.24854H16.75C17.3467 7.24854 17.919 7.48559 18.341 7.90755C18.7629 8.3295 19 8.9018 19 9.49854V16.9985M10 10.9985H10.008V11.0065H10V10.9985ZM10 13.2485H10.008V13.2565H10V13.2485ZM10 15.4985H10.008V15.5065H10V15.4985ZM7.75 13.2485H7.758V13.2565H7.75V13.2485ZM7.75 15.4985H7.758V15.5065H7.75V15.4985ZM5.5 13.2485H5.508V13.2565H5.5V13.2485ZM5.5 15.4985H5.508V15.5065H5.5V15.4985ZM12.25 10.9985H12.258V11.0065H12.25V10.9985ZM12.25 13.2485H12.258V13.2565H12.25V13.2485ZM12.25 15.4985H12.258V15.5065H12.25V15.4985ZM14.5 10.9985H14.508V11.0065H14.5V10.9985ZM14.5 13.2485H14.508V13.2565H14.5V13.2485Z" stroke="#505050" stroke-width="1.5" stroke-linecap="round" stroke-linejoin="round"/>
</svg>
