<svg width="25" height="24" viewBox="0 0 25 24" fill="none" xmlns="http://www.w3.org/2000/svg">
<path d="M19.4677 14.8671C18.9763 14.3555 18.3837 14.082 17.7556 14.082C17.1326 14.082 16.5348 14.3505 16.0232 14.8621L14.4226 16.4577C14.2909 16.3867 14.1592 16.3209 14.0326 16.2551C13.8502 16.1639 13.678 16.0778 13.5311 15.9866C12.0317 15.0343 10.6691 13.7933 9.36229 12.1876C8.72912 11.3872 8.30362 10.7135 7.99464 10.0297C8.41 9.64981 8.79497 9.25472 9.1698 8.87481C9.31163 8.73298 9.45346 8.58609 9.59529 8.44426C10.659 7.38053 10.659 6.00275 9.59529 4.93902L8.21245 3.55618C8.05542 3.39915 7.89333 3.23706 7.74137 3.07497C7.43745 2.76092 7.11833 2.43673 6.78908 2.13281C6.29774 1.64654 5.71016 1.3882 5.09218 1.3882C4.47421 1.3882 3.8765 1.64654 3.36996 2.13281L3.35983 2.14294L1.63761 3.88036C0.989239 4.52873 0.619467 5.31893 0.538421 6.23576C0.416853 7.71485 0.852474 9.09262 1.18679 9.99426C2.00738 12.2078 3.2332 14.2593 5.06179 16.4577C7.28042 19.1069 9.94987 21.1988 12.9992 22.6729C14.1643 23.225 15.7193 23.8784 17.4567 23.9899C17.5631 23.9949 17.6745 24 17.7759 24C18.946 24 19.9286 23.5796 20.6986 22.7438C20.7036 22.7337 20.7138 22.7286 20.7188 22.7185C20.9822 22.3993 21.2862 22.1106 21.6053 21.8016C21.8231 21.5939 22.046 21.3761 22.2638 21.1482C22.7652 20.6265 23.0286 20.0186 23.0286 19.3956C23.0286 18.7675 22.7602 18.1647 22.2486 17.6582L19.4677 14.8671ZM21.2811 20.201C21.276 20.201 21.276 20.206 21.2811 20.201C21.0835 20.4137 20.8809 20.6062 20.6631 20.8189C20.3339 21.133 19.9996 21.4622 19.6855 21.832C19.1739 22.3791 18.5711 22.6374 17.7809 22.6374C17.7049 22.6374 17.6239 22.6374 17.5479 22.6323C16.0435 22.5361 14.6455 21.9485 13.5969 21.4471C10.7299 20.0591 8.21245 18.0887 6.12045 15.5915C4.39316 13.5096 3.23826 11.5848 2.47339 9.51812C2.00231 8.25684 1.83009 7.27416 1.90607 6.3472C1.95672 5.75455 2.18466 5.26321 2.60509 4.84278L4.33238 3.11549C4.58058 2.88249 4.84398 2.75585 5.10231 2.75585C5.42143 2.75585 5.67977 2.94834 5.84186 3.11043L5.85705 3.12562C6.16604 3.41435 6.45983 3.71321 6.76882 4.03233C6.92585 4.19442 7.08794 4.35651 7.25003 4.52367L8.63287 5.90651C9.1698 6.44344 9.1698 6.93984 8.63287 7.47677C8.48598 7.62367 8.34415 7.77056 8.19725 7.91239C7.77176 8.34802 7.36653 8.75325 6.92585 9.14834C6.91572 9.15847 6.90558 9.16354 6.90052 9.17367C6.4649 9.60929 6.54594 10.0348 6.63712 10.3235L6.65232 10.3691C7.01196 11.2403 7.51849 12.0609 8.28843 13.0385L8.29349 13.0436C9.69153 14.7658 11.1656 16.1082 12.7915 17.1364C12.9992 17.2681 13.212 17.3745 13.4146 17.4758C13.5969 17.567 13.7692 17.6531 13.916 17.7443C13.9363 17.7544 13.9566 17.7696 13.9768 17.7797C14.1491 17.8658 14.3111 17.9064 14.4783 17.9064C14.8987 17.9064 15.1621 17.643 15.2482 17.5568L16.9806 15.8245C17.1528 15.6523 17.4263 15.4446 17.7455 15.4446C18.0595 15.4446 18.3179 15.6421 18.4749 15.8144L18.485 15.8245L21.276 18.6155C21.7978 19.1322 21.7978 19.664 21.2811 20.201ZM13.4703 5.70896C14.7974 5.93184 16.003 6.55994 16.9654 7.52236C17.9278 8.48478 18.5509 9.69034 18.7788 11.0175C18.8345 11.3518 19.1232 11.5848 19.4525 11.5848C19.493 11.5848 19.5285 11.5797 19.569 11.5747C19.9438 11.5139 20.192 11.1593 20.1313 10.7845C19.8577 9.17874 19.0979 7.71485 17.9379 6.55488C16.778 5.39491 15.3141 4.6351 13.7084 4.36157C13.3335 4.30079 12.984 4.54899 12.9182 4.91876C12.8523 5.28854 13.0955 5.64818 13.4703 5.70896ZM24.4723 10.5869C24.0215 7.94279 22.7754 5.53674 20.8607 3.62203C18.946 1.70732 16.5399 0.461243 13.8958 0.0104253C13.526 -0.0554245 13.1765 0.197844 13.1107 0.567615C13.0499 0.942452 13.2981 1.29196 13.6729 1.35781C16.0334 1.75798 18.1862 2.87742 19.8982 4.58445C21.6103 6.29654 22.7247 8.44932 23.1249 10.8098C23.1806 11.1441 23.4693 11.3771 23.7986 11.3771C23.8391 11.3771 23.8746 11.372 23.9151 11.367C24.2849 11.3113 24.5381 10.9567 24.4723 10.5869Z" fill="black"/>
</svg>
