<svg width="30" height="28" viewBox="0 0 30 28" fill="none" xmlns="http://www.w3.org/2000/svg">
<path d="M14.9999 24.195C14.8749 24.195 14.7499 24.15 14.6499 24.055L13.5349 22.975L12.0299 23.355C11.7699 23.42 11.4999 23.265 11.4249 23.005L11.0049 21.51L9.50987 21.09C9.24987 21.015 9.09487 20.75 9.15987 20.485L9.53987 18.98L8.45987 17.865C8.36857 17.7724 8.31738 17.6476 8.31738 17.5175C8.31738 17.3875 8.36857 17.2626 8.45987 17.17L9.53987 16.055L9.15987 14.55C9.09487 14.285 9.24987 14.02 9.50987 13.945L11.0049 13.525L11.4249 12.03C11.4999 11.77 11.7649 11.615 12.0299 11.68L13.5349 12.06L14.6499 10.98C14.7425 10.8887 14.8673 10.8375 14.9974 10.8375C15.1274 10.8375 15.2522 10.8887 15.3449 10.98L16.4599 12.06L17.9649 11.68C18.2299 11.615 18.4949 11.77 18.5699 12.03L18.9899 13.525L20.4849 13.945C20.7449 14.02 20.8999 14.285 20.8349 14.55L20.4549 16.055L21.5349 17.17C21.6262 17.2626 21.6773 17.3875 21.6773 17.5175C21.6773 17.6476 21.6262 17.7724 21.5349 17.865L20.4549 18.98L20.8349 20.485C20.8999 20.75 20.7449 21.015 20.4849 21.09L18.9899 21.51L18.5699 23.005C18.4949 23.265 18.2249 23.42 17.9649 23.355L16.4599 22.975L15.3449 24.055C15.2499 24.15 15.1249 24.195 14.9999 24.195ZM13.6849 21.92C13.8149 21.92 13.9399 21.97 14.0349 22.06L14.9999 23L15.9649 22.06C16.0899 21.94 16.2699 21.89 16.4349 21.935L17.7399 22.265L18.1049 20.97C18.1499 20.8 18.2849 20.67 18.4499 20.625L19.7449 20.26L19.4149 18.955C19.3699 18.785 19.4199 18.61 19.5399 18.485L20.4799 17.52L19.5399 16.555C19.4805 16.494 19.4378 16.4187 19.4159 16.3364C19.394 16.254 19.3936 16.1675 19.4149 16.085L19.7449 14.78L18.4499 14.415C18.3673 14.3926 18.292 14.349 18.2314 14.2884C18.1709 14.2279 18.1273 14.1526 18.1049 14.07L17.7399 12.775L16.4349 13.105C16.3524 13.1262 16.2658 13.1259 16.1835 13.104C16.1012 13.0821 16.0259 13.0394 15.9649 12.98L14.9999 12.045L14.0349 12.985C13.9099 13.105 13.7299 13.155 13.5649 13.11L12.2599 12.78L11.8949 14.075C11.8499 14.24 11.7149 14.375 11.5499 14.42L10.2549 14.785L10.5849 16.09C10.6299 16.26 10.5799 16.435 10.4599 16.56L9.51987 17.525L10.4599 18.49C10.5799 18.615 10.6299 18.795 10.5849 18.96L10.2549 20.265L11.5499 20.63C11.7199 20.675 11.8499 20.81 11.8949 20.975L12.2599 22.27L13.5649 21.94C13.6049 21.925 13.6449 21.92 13.6849 21.92Z" fill="#736428"/>
<path d="M11.9805 27.4601H11.9405C11.8398 27.4526 11.7437 27.4146 11.6651 27.3512C11.5865 27.2878 11.5291 27.2019 11.5005 27.1051L10.8305 24.8901L9.00046 25.5901C8.90939 25.625 8.81002 25.6323 8.71483 25.6109C8.61965 25.5896 8.53289 25.5406 8.46546 25.4701C8.32546 25.3251 8.28546 25.1151 8.36046 24.9301L10.1205 20.6801C10.1457 20.6194 10.1827 20.5642 10.2293 20.5178C10.2759 20.4713 10.3312 20.4345 10.392 20.4094C10.4529 20.3844 10.518 20.3715 10.5838 20.3716C10.6496 20.3717 10.7147 20.3848 10.7755 20.4101C10.8362 20.4354 10.8914 20.4724 10.9378 20.519C10.9842 20.5656 11.021 20.6209 11.0461 20.6817C11.0712 20.7425 11.084 20.8077 11.0839 20.8734C11.0838 20.9392 11.0707 21.0044 11.0455 21.0651L9.73046 24.2401L10.9755 23.7651C11.1055 23.7151 11.2505 23.7201 11.3755 23.7851C11.5005 23.8451 11.5955 23.9551 11.6355 24.0901L12.0905 25.5901L13.5655 22.5251C13.6855 22.2751 13.9855 22.1701 14.2305 22.2901C14.4805 22.4101 14.5855 22.7101 14.4655 22.9551L12.4305 27.1751C12.3455 27.3501 12.1705 27.4601 11.9805 27.4601ZM18.0205 27.4601C17.8305 27.4601 17.6555 27.3501 17.5705 27.1751L15.5355 22.9551C15.5067 22.8961 15.49 22.832 15.4863 22.7664C15.4826 22.7009 15.4919 22.6353 15.5138 22.5734C15.5356 22.5115 15.5696 22.4546 15.6137 22.406C15.6577 22.3573 15.711 22.3179 15.7705 22.2901C15.8295 22.2614 15.8936 22.2446 15.9591 22.2409C16.0247 22.2372 16.0903 22.2465 16.1522 22.2684C16.214 22.2903 16.271 22.3242 16.3196 22.3683C16.3682 22.4124 16.4076 22.4657 16.4355 22.5251L17.9105 25.5901L18.3655 24.0901C18.3858 24.0243 18.4193 23.9633 18.464 23.9109C18.5087 23.8585 18.5636 23.8158 18.6254 23.7854C18.6872 23.7549 18.7546 23.7374 18.8234 23.734C18.8921 23.7305 18.9609 23.7411 19.0255 23.7651L20.2705 24.2401L18.9555 21.0651C18.8505 20.8101 18.9705 20.5151 19.2255 20.4101C19.4805 20.3051 19.7755 20.4251 19.8805 20.6801L21.6405 24.9301C21.677 25.0204 21.6866 25.1193 21.668 25.2149C21.6493 25.3105 21.6033 25.3987 21.5355 25.4686C21.4677 25.5385 21.381 25.5872 21.286 25.6088C21.191 25.6304 21.0918 25.6239 21.0005 25.5901L19.1705 24.8901L18.5005 27.1051C18.4405 27.3001 18.2655 27.4451 18.0605 27.4601H18.0205ZM15.0005 20.8201C13.1805 20.8201 11.7005 19.3401 11.7005 17.5201C11.7005 15.7001 13.1805 14.2201 15.0005 14.2201C16.8205 14.2201 18.3005 15.7001 18.3005 17.5201C18.3005 19.3401 16.8205 20.8201 15.0005 20.8201ZM15.0005 15.2201C14.6984 15.2201 14.3993 15.2797 14.1202 15.3953C13.8411 15.5109 13.5876 15.6804 13.374 15.894C13.1604 16.1076 12.991 16.3612 12.8755 16.6403C12.7599 16.9194 12.7004 17.2185 12.7005 17.5206C12.7005 17.8227 12.76 18.1218 12.8757 18.4008C12.9913 18.6799 13.1607 18.9335 13.3744 19.147C13.588 19.3606 13.8416 19.53 14.1207 19.6456C14.3998 19.7612 14.6989 19.8206 15.001 19.8206C15.611 19.8205 16.1961 19.5781 16.6274 19.1467C17.0587 18.7153 17.301 18.1302 17.301 17.5201C17.3009 16.91 17.0585 16.325 16.6271 15.8936C16.1956 15.4623 15.6105 15.22 15.0005 15.2201Z" fill="#736428"/>
<path d="M27.3954 22.15H21.9704C21.6954 22.15 21.4704 21.925 21.4704 21.65C21.4704 21.375 21.6954 21.15 21.9704 21.15H27.3904C27.9403 21.15 28.3854 20.705 28.3854 20.155V2.54004C28.3854 1.99004 27.9403 1.54504 27.3904 1.54504H2.60535C2.05535 1.54504 1.61035 1.99004 1.61035 2.54004V20.155C1.61035 20.705 2.05535 21.15 2.60535 21.15H7.52535C7.80035 21.15 8.02535 21.375 8.02535 21.65C8.02535 21.925 7.80035 22.15 7.52535 22.15H2.60535C1.50535 22.15 0.610352 21.255 0.610352 20.155V2.54004C0.610352 1.44004 1.50535 0.545044 2.60535 0.545044H27.3954C28.4954 0.545044 29.3904 1.44004 29.3904 2.54004V20.155C29.3904 21.255 28.4954 22.15 27.3954 22.15Z" fill="#736428"/>
<path d="M25.8007 20.2751H22.1357C21.8607 20.2751 21.6357 20.0501 21.6357 19.7751C21.6357 19.5001 21.8607 19.2751 22.1357 19.2751H25.8007C26.2307 19.2751 26.5757 18.9501 26.5757 18.5551V4.17007C26.5757 3.77007 26.2257 3.45007 25.8007 3.45007H4.66074C4.23074 3.45007 3.88574 3.77507 3.88574 4.17007V18.5501C3.88574 18.9501 4.23574 19.2701 4.66074 19.2701H7.56074C7.83574 19.2701 8.06074 19.4951 8.06074 19.7701C8.06074 20.0451 7.83574 20.2701 7.56074 20.2701H4.66074C3.68074 20.2701 2.88574 19.5001 2.88574 18.5501V4.17007C2.88574 3.22007 3.68074 2.45007 4.66074 2.45007H25.8007C26.7807 2.45007 27.5757 3.22007 27.5757 4.17007V18.5501C27.5757 19.5051 26.7807 20.2751 25.8007 20.2751Z" fill="#736428"/>
<path d="M16.3101 6.30005H6.49512C6.22012 6.30005 5.99512 6.07505 5.99512 5.80005C5.99512 5.52505 6.22012 5.30005 6.49512 5.30005H16.3051C16.5801 5.30005 16.8051 5.52505 16.8051 5.80005C16.8051 6.07505 16.5851 6.30005 16.3101 6.30005ZM23.9601 6.30005H18.6701C18.3951 6.30005 18.1701 6.07505 18.1701 5.80005C18.1701 5.52505 18.3951 5.30005 18.6701 5.30005H23.9601C24.2351 5.30005 24.4601 5.52505 24.4601 5.80005C24.4601 6.07505 24.2351 6.30005 23.9601 6.30005ZM23.9601 9.33505H14.1501C13.8751 9.33505 13.6501 9.11005 13.6501 8.83505C13.6501 8.56005 13.8751 8.33505 14.1501 8.33505H23.9601C24.2351 8.33505 24.4601 8.56005 24.4601 8.83505C24.4601 9.11005 24.2351 9.33505 23.9601 9.33505ZM11.7901 9.33505H6.49512C6.22012 9.33505 5.99512 9.11005 5.99512 8.83505C5.99512 8.56005 6.22012 8.33505 6.49512 8.33505H11.7851C12.0601 8.33505 12.2851 8.56005 12.2851 8.83505C12.2851 9.11005 12.0651 9.33505 11.7901 9.33505Z" fill="#736428"/>
</svg>
