<svg width="24" height="21" viewBox="0 0 24 21" fill="none" xmlns="http://www.w3.org/2000/svg">
<path d="M22 0.0999756H2C1.46976 0.100611 0.961423 0.311528 0.586488 0.686464C0.211553 1.0614 0.000635143 1.56974 0 2.09998L0 16.5C0.000635143 17.0302 0.211553 17.5386 0.586488 17.9135C0.961423 18.2884 1.46976 18.4993 2 18.5H14V20.5C14 20.5791 14.0235 20.6564 14.0674 20.7222C14.1114 20.7879 14.1739 20.8392 14.2469 20.8694C14.32 20.8997 14.4004 20.9076 14.478 20.8922C14.5556 20.8768 14.6269 20.8387 14.6828 20.7828L16 19.4656L17.3172 20.7828C17.3731 20.8387 17.4444 20.8768 17.522 20.8922C17.5996 20.9076 17.68 20.8997 17.7531 20.8694C17.8261 20.8392 17.8886 20.7879 17.9326 20.7222C17.9765 20.6564 18 20.5791 18 20.5V18.5H22C22.5302 18.4993 23.0386 18.2884 23.4135 17.9135C23.7884 17.5386 23.9994 17.0302 24 16.5V2.09998C23.9994 1.56974 23.7884 1.0614 23.4135 0.686464C23.0386 0.311528 22.5302 0.100611 22 0.0999756ZM12.924 7.92598C12.8935 7.91191 12.8668 7.89084 12.846 7.86448C12.8252 7.83812 12.811 7.80721 12.8044 7.77429C12.7979 7.74136 12.7992 7.70736 12.8083 7.67505C12.8174 7.64274 12.834 7.61304 12.8568 7.58838C13.0294 7.40076 13.1252 7.15512 13.1252 6.90018C13.1252 6.64523 13.0294 6.39959 12.8568 6.21198C12.834 6.18729 12.8173 6.15753 12.8082 6.12516C12.799 6.09278 12.7977 6.0587 12.8043 6.02572C12.8109 5.99274 12.8252 5.96179 12.8461 5.93541C12.867 5.90903 12.8938 5.88798 12.9244 5.87398C13.1555 5.76642 13.3379 5.57604 13.4353 5.3405C13.5328 5.10495 13.5383 4.8414 13.4508 4.60198C13.4392 4.57047 13.4351 4.53666 13.4391 4.5033C13.443 4.46994 13.4548 4.43799 13.4734 4.41006C13.4921 4.38212 13.5171 4.359 13.5464 4.34258C13.5757 4.32615 13.6084 4.3169 13.642 4.31558C13.8968 4.30487 14.1382 4.19886 14.3186 4.01854C14.4989 3.83822 14.6049 3.59676 14.6156 3.34198C14.6169 3.30837 14.6262 3.27554 14.6426 3.2462C14.659 3.21686 14.6822 3.19183 14.7102 3.17317C14.7382 3.15452 14.7702 3.14276 14.8036 3.13887C14.837 3.13497 14.8709 3.13905 14.9024 3.15078C15.1419 3.2378 15.4053 3.23199 15.6407 3.13449C15.8762 3.03698 16.0666 2.85485 16.1744 2.62398C16.1883 2.59344 16.2093 2.56665 16.2357 2.54581C16.262 2.52497 16.2929 2.51069 16.3258 2.50412C16.3587 2.49756 16.3927 2.49891 16.425 2.50807C16.4573 2.51722 16.487 2.53392 16.5116 2.55678C16.9008 2.91478 17.4996 2.91478 17.8884 2.55678C17.9131 2.53393 17.9428 2.51726 17.9751 2.50814C18.0075 2.49902 18.0415 2.4977 18.0745 2.5043C18.1074 2.5109 18.1384 2.52522 18.1647 2.5461C18.191 2.56697 18.212 2.5938 18.226 2.62438C18.3336 2.85534 18.5239 3.03755 18.7594 3.13501C18.9948 3.23247 19.2582 3.23809 19.4976 3.15078C19.5291 3.13905 19.563 3.13497 19.5964 3.13887C19.6298 3.14276 19.6618 3.15452 19.6898 3.17317C19.7178 3.19183 19.741 3.21686 19.7574 3.2462C19.7738 3.27554 19.7831 3.30837 19.7844 3.34198C19.7952 3.5971 19.9015 3.83883 20.0822 4.01925C20.263 4.19966 20.5049 4.30557 20.76 4.31598C20.7935 4.31724 20.8263 4.32643 20.8556 4.34281C20.8849 4.35918 20.9099 4.38227 20.9286 4.41018C20.9472 4.43809 20.959 4.47002 20.963 4.50336C20.9669 4.5367 20.9629 4.57049 20.9512 4.60198C20.8636 4.84144 20.8691 5.10507 20.9667 5.34064C21.0643 5.57622 21.2467 5.76657 21.478 5.87398C21.5085 5.88804 21.5352 5.90911 21.556 5.93547C21.5768 5.96184 21.591 5.99274 21.5976 6.02566C21.6041 6.05859 21.6028 6.09259 21.5937 6.1249C21.5846 6.15721 21.568 6.18691 21.5452 6.21158C21.3726 6.39919 21.2768 6.64483 21.2768 6.89978C21.2768 7.15472 21.3726 7.40036 21.5452 7.58798C21.568 7.61266 21.5847 7.64242 21.5938 7.67479C21.603 7.70717 21.6043 7.74125 21.5977 7.77423C21.5911 7.80721 21.5768 7.83816 21.5559 7.86454C21.535 7.89092 21.5082 7.91197 21.4776 7.92598C21.2465 8.03353 21.0641 8.22391 20.9667 8.45946C20.8692 8.695 20.8637 8.95856 20.9512 9.19798C20.9628 9.22948 20.9669 9.26329 20.9629 9.29665C20.959 9.33001 20.9472 9.36196 20.9286 9.3899C20.9099 9.41783 20.8849 9.44095 20.8556 9.45738C20.8263 9.4738 20.7936 9.48305 20.76 9.48438C20.5045 9.49463 20.2623 9.6007 20.0815 9.78149C19.9007 9.96228 19.7947 10.2045 19.7844 10.46C19.7831 10.4936 19.7738 10.5264 19.7574 10.5558C19.741 10.5851 19.7178 10.6101 19.6898 10.6288C19.6618 10.6474 19.6298 10.6592 19.5964 10.6631C19.563 10.667 19.5291 10.6629 19.4976 10.6512C19.2581 10.5641 18.9947 10.5698 18.7592 10.6673C18.5237 10.7648 18.3334 10.947 18.2256 11.178C18.2122 11.2088 18.1914 11.2358 18.1651 11.2567C18.1388 11.2777 18.1078 11.2918 18.0748 11.298C18.0418 11.3049 18.0076 11.3037 17.9752 11.2946C17.9427 11.2855 17.913 11.2687 17.8884 11.2456C17.7007 11.073 17.455 10.9772 17.2 10.9772C16.945 10.9772 16.6993 11.073 16.5116 11.2456C16.487 11.2686 16.4572 11.2854 16.4248 11.2945C16.3924 11.3037 16.3582 11.3048 16.3252 11.298C16.2921 11.2918 16.2611 11.2777 16.2347 11.2567C16.2084 11.2358 16.1875 11.2088 16.174 11.178C16.0665 10.9469 15.8761 10.7647 15.6407 10.6672C15.4052 10.5697 15.1418 10.5642 14.9024 10.6516C14.8709 10.6633 14.837 10.6674 14.8036 10.6635C14.7702 10.6596 14.7382 10.6478 14.7102 10.6292C14.6822 10.6105 14.659 10.5855 14.6426 10.5562C14.6262 10.5268 14.6169 10.494 14.6156 10.4604C14.6054 10.2048 14.4993 9.9625 14.3185 9.78159C14.1378 9.60067 13.8955 9.49442 13.64 9.48398C13.6065 9.48271 13.5737 9.47352 13.5444 9.45714C13.5151 9.44077 13.4901 9.41768 13.4714 9.38977C13.4528 9.36186 13.441 9.32993 13.437 9.29659C13.4331 9.26325 13.4371 9.22946 13.4488 9.19798C13.5365 8.95875 13.5313 8.69532 13.4341 8.45977C13.3369 8.22423 13.1549 8.03374 12.924 7.92598ZM17.3176 15.4168L17.2 15.5344V11.7744C17.2536 11.7744 17.3052 11.7944 17.3444 11.8308C17.4613 11.9405 17.6028 12.0205 17.7571 12.0641C17.9113 12.1077 18.0738 12.1135 18.2308 12.0812C18.3877 12.0506 18.5349 11.9828 18.6602 11.8835C18.7854 11.7843 18.8851 11.6565 18.9508 11.5108C18.9734 11.4621 19.0135 11.4238 19.063 11.4033C19.1126 11.3829 19.1681 11.3818 19.2184 11.4004C19.34 11.4436 19.4688 11.4628 19.598 11.4576V15.5344L18.6808 14.6172C18.6058 14.5422 18.5041 14.5001 18.398 14.5001C18.2919 14.5001 18.1902 14.5422 18.1152 14.6172L17.3176 15.4168ZM17.2 19.5344L16.2828 18.6172C16.2078 18.5422 16.1061 18.5001 16 18.5001C15.8939 18.5001 15.7922 18.5422 15.7172 18.6172L14.8 19.5344V11.4568C14.9292 11.462 15.058 11.4428 15.1796 11.3996C15.2298 11.3809 15.2852 11.3819 15.3347 11.4023C15.3843 11.4227 15.4243 11.461 15.4468 11.5096C15.5127 11.6556 15.6127 11.7837 15.7384 11.8831C15.8641 11.9824 16.0119 12.0501 16.1692 12.0804C16.2452 12.0956 16.3224 12.102 16.4 12.1V16.5C16.4 16.5791 16.4235 16.6564 16.4674 16.7222C16.5114 16.7879 16.5739 16.8392 16.6469 16.8694C16.72 16.8997 16.8004 16.9076 16.878 16.8922C16.9556 16.8768 17.0269 16.8387 17.0828 16.7828L17.2 16.6656V19.5344ZM23.2 16.5C23.2 16.8182 23.0736 17.1235 22.8485 17.3485C22.6235 17.5735 22.3183 17.7 22 17.7H18V15.8656L18.4 15.4656L19.7172 16.7828C19.7731 16.8387 19.8444 16.8768 19.922 16.8922C19.9996 16.9076 20.08 16.8997 20.1531 16.8694C20.2261 16.8392 20.2886 16.7879 20.3326 16.7222C20.3765 16.6564 20.4 16.5791 20.4 16.5V11.0228C20.512 10.866 20.5756 10.6804 20.5836 10.488C20.586 10.4345 20.6083 10.3838 20.6462 10.3459C20.6841 10.3081 20.7349 10.2858 20.7884 10.2836C20.9483 10.2774 21.1044 10.2335 21.244 10.1553C21.3836 10.0772 21.5027 9.9671 21.5916 9.83407C21.6804 9.70103 21.7365 9.54884 21.7552 9.38995C21.7739 9.23107 21.7547 9.07001 21.6992 8.91998C21.6808 8.86976 21.6819 8.81446 21.7024 8.76504C21.7228 8.71562 21.7611 8.67569 21.8096 8.65318C21.955 8.58636 22.0826 8.48602 22.1817 8.36039C22.2809 8.23476 22.3489 8.08741 22.3801 7.93043C22.4114 7.77345 22.4049 7.61131 22.3614 7.45729C22.3178 7.30327 22.2384 7.16176 22.1296 7.04438C22.0933 7.00495 22.0732 6.95334 22.0732 6.89978C22.0732 6.84621 22.0933 6.7946 22.1296 6.75518C22.2384 6.63782 22.3178 6.49635 22.3614 6.34236C22.4049 6.18837 22.4114 6.02625 22.3801 5.8693C22.3489 5.71234 22.2809 5.56503 22.1817 5.43943C22.0826 5.31384 21.955 5.21354 21.8096 5.14678C21.761 5.1244 21.7225 5.08451 21.702 5.03506C21.6815 4.98561 21.6803 4.93023 21.6988 4.87998C21.7543 4.72994 21.7735 4.56888 21.7548 4.41C21.7361 4.25111 21.68 4.09892 21.5912 3.96588C21.5023 3.83285 21.3832 3.72275 21.2436 3.64462C21.104 3.56649 20.9479 3.52254 20.788 3.51638C20.7345 3.51412 20.6837 3.49188 20.6458 3.45403C20.6079 3.41619 20.5856 3.3655 20.5832 3.31198C20.5772 3.15206 20.5334 2.99584 20.4554 2.85612C20.3773 2.71641 20.2673 2.59718 20.1343 2.50823C20.0013 2.41927 19.849 2.36311 19.6901 2.34437C19.5312 2.32562 19.3701 2.34481 19.22 2.40038C19.1698 2.41933 19.1143 2.41851 19.0647 2.39809C19.0151 2.37766 18.9751 2.33917 18.9528 2.29038C18.886 2.14493 18.7856 2.0174 18.66 1.91823C18.5344 1.81905 18.387 1.75107 18.2301 1.71984C18.0731 1.68862 17.9109 1.69504 17.7569 1.73859C17.6029 1.78214 17.4614 1.86157 17.344 1.97038C17.3046 2.00661 17.2531 2.02672 17.1996 2.02672C17.1461 2.02672 17.0946 2.00661 17.0552 1.97038C16.9378 1.86157 16.7964 1.78214 16.6424 1.73859C16.4884 1.69504 16.3263 1.68861 16.1693 1.71984C16.0124 1.75106 15.8651 1.81905 15.7395 1.91823C15.6139 2.0174 15.5136 2.14494 15.4468 2.29038C15.4244 2.3392 15.3844 2.37774 15.3347 2.39822C15.2851 2.41871 15.2295 2.41962 15.1792 2.40078C15.0291 2.34521 14.868 2.32602 14.7091 2.34477C14.5502 2.36351 14.3979 2.41967 14.2649 2.50863C14.1319 2.59758 14.0219 2.71681 13.9438 2.85652C13.8658 2.99624 13.822 3.15246 13.816 3.31238C13.8136 3.3659 13.7913 3.41659 13.7534 3.45443C13.7155 3.49228 13.6647 3.51452 13.6112 3.51678C13.4513 3.52294 13.2952 3.56689 13.1556 3.64502C13.016 3.72315 12.8969 3.83325 12.808 3.96628C12.7192 4.09932 12.6631 4.25151 12.6444 4.4104C12.6257 4.56928 12.6449 4.73034 12.7004 4.88038C12.7188 4.93059 12.7177 4.98589 12.6972 5.03531C12.6768 5.08473 12.6385 5.12466 12.59 5.14718C12.4446 5.21399 12.317 5.31433 12.2179 5.43996C12.1187 5.56559 12.0507 5.71294 12.0195 5.86992C11.9882 6.0269 11.9947 6.18905 12.0382 6.34306C12.0818 6.49708 12.1612 6.63859 12.27 6.75598C12.3063 6.7954 12.3264 6.84701 12.3264 6.90058C12.3264 6.95414 12.3063 7.00575 12.27 7.04518C12.1612 7.16253 12.0818 7.304 12.0382 7.45799C11.9947 7.61198 11.9882 7.7741 12.0195 7.93105C12.0507 8.08801 12.1187 8.23532 12.2179 8.36092C12.317 8.48651 12.4446 8.58681 12.59 8.65358C12.6386 8.67595 12.6771 8.71584 12.6976 8.76529C12.7181 8.81474 12.7193 8.87012 12.7008 8.92038C12.6453 9.07041 12.6261 9.23147 12.6448 9.39035C12.6635 9.54924 12.7196 9.70143 12.8084 9.83447C12.8973 9.9675 13.0164 10.0776 13.156 10.1557C13.2956 10.2339 13.4517 10.2778 13.6116 10.284C13.7224 10.2888 13.8116 10.3776 13.8164 10.4884C13.8244 10.6804 13.8884 10.866 14 11.0228V17.7H2C1.68174 17.7 1.37652 17.5735 1.15147 17.3485C0.926428 17.1235 0.8 16.8182 0.8 16.5V2.09998C0.8 1.78172 0.926428 1.47649 1.15147 1.25145C1.37652 1.0264 1.68174 0.899976 2 0.899976H22C22.3183 0.899976 22.6235 1.0264 22.8485 1.25145C23.0736 1.47649 23.2 1.78172 23.2 2.09998V16.5Z" fill="#303030"/>
<path d="M4.3999 14.5C4.08164 14.5 3.77642 14.3736 3.55137 14.1485C3.32633 13.9235 3.1999 13.6182 3.1999 13.3V5.29999C3.1999 4.98173 3.32633 4.6765 3.55137 4.45146C3.77642 4.22642 4.08164 4.09999 4.3999 4.09999H11.5999C11.706 4.09999 11.8077 4.05784 11.8827 3.98283C11.9578 3.90782 11.9999 3.80607 11.9999 3.69999C11.9999 3.5939 11.9578 3.49216 11.8827 3.41715C11.8077 3.34213 11.706 3.29999 11.5999 3.29999H4.3999C3.86966 3.30062 3.36133 3.51154 2.98639 3.88648C2.61146 4.26141 2.40054 4.76975 2.3999 5.29999V13.3C2.40054 13.8302 2.61146 14.3386 2.98639 14.7135C3.36133 15.0884 3.86966 15.2994 4.3999 15.3H11.9999C12.106 15.3 12.2077 15.2578 12.2827 15.1828C12.3578 15.1078 12.3999 15.0061 12.3999 14.9C12.3999 14.7939 12.3578 14.6922 12.2827 14.6171C12.2077 14.5421 12.106 14.5 11.9999 14.5H4.3999Z" fill="#303030"/>
<path d="M4.80014 9.69995H10.4001C10.5062 9.69995 10.608 9.65781 10.683 9.5828C10.758 9.50778 10.8001 9.40604 10.8001 9.29995C10.8001 9.19387 10.758 9.09212 10.683 9.01711C10.608 8.9421 10.5062 8.89995 10.4001 8.89995H4.80014C4.69405 8.89995 4.59231 8.9421 4.51729 9.01711C4.44228 9.09212 4.40014 9.19387 4.40014 9.29995C4.40014 9.40604 4.44228 9.50778 4.51729 9.5828C4.59231 9.65781 4.69405 9.69995 4.80014 9.69995ZM4.80014 8.09995H10.4001C10.5062 8.09995 10.608 8.05781 10.683 7.9828C10.758 7.90778 10.8001 7.80604 10.8001 7.69995C10.8001 7.59387 10.758 7.49212 10.683 7.41711C10.608 7.3421 10.5062 7.29995 10.4001 7.29995H4.80014C4.69405 7.29995 4.59231 7.3421 4.51729 7.41711C4.44228 7.49212 4.40014 7.59387 4.40014 7.69995C4.40014 7.80604 4.44228 7.90778 4.51729 7.9828C4.59231 8.05781 4.69405 8.09995 4.80014 8.09995ZM4.80014 6.49995H10.4001C10.5062 6.49995 10.608 6.45781 10.683 6.3828C10.758 6.30778 10.8001 6.20604 10.8001 6.09995C10.8001 5.99387 10.758 5.89212 10.683 5.81711C10.608 5.7421 10.5062 5.69995 10.4001 5.69995H4.80014C4.69405 5.69995 4.59231 5.7421 4.51729 5.81711C4.44228 5.89212 4.40014 5.99387 4.40014 6.09995C4.40014 6.20604 4.44228 6.30778 4.51729 6.3828C4.59231 6.45781 4.69405 6.49995 4.80014 6.49995ZM4.43334 13.46C4.45433 13.5081 4.48461 13.5517 4.52245 13.5882C4.5603 13.6247 4.60496 13.6533 4.65388 13.6725C4.7028 13.6917 4.75503 13.7011 4.80758 13.7001C4.86013 13.6991 4.91197 13.6878 4.96014 13.6668C5.33046 13.5292 5.67079 13.3215 5.96254 13.0552C6.07084 12.9471 6.16554 12.8262 6.24454 12.6952C6.39734 12.8672 6.57654 13.0128 6.77614 13.1272C7.05414 13.3088 7.40014 13.3532 7.71494 13.2472C7.83574 13.2004 7.94494 13.128 8.03494 13.0352C8.21614 13.1484 8.41534 13.2288 8.62414 13.2732L8.92654 13.3448C9.54374 13.5256 10.1849 13.6104 10.8281 13.5968C10.8805 13.593 10.9317 13.5789 10.9786 13.5554C11.0256 13.5318 11.0675 13.4992 11.1018 13.4595C11.1362 13.4198 11.1624 13.3737 11.179 13.3238C11.1955 13.274 11.2021 13.2214 11.1983 13.169C11.1946 13.1166 11.1805 13.0654 11.1569 13.0185C11.1334 12.9715 11.1008 12.9296 11.0611 12.8953C11.0214 12.8609 10.9753 12.8347 10.9254 12.8181C10.8756 12.8015 10.8229 12.795 10.7705 12.7988C10.2093 12.806 9.65054 12.728 9.11294 12.5668L8.80374 12.4936C8.43054 12.4076 8.33454 12.2572 8.29494 12.1512C8.26122 12.0611 8.1962 11.9862 8.11178 11.9402C8.02737 11.8942 7.92921 11.8802 7.83527 11.9006C7.74133 11.9211 7.6579 11.9747 7.60024 12.0516C7.54259 12.1285 7.51458 12.2237 7.52134 12.3196C7.52353 12.3548 7.51645 12.39 7.5008 12.4217C7.48515 12.4533 7.46148 12.4803 7.43214 12.5C7.33868 12.5118 7.24422 12.4875 7.16814 12.432C6.84465 12.2306 6.60139 11.9228 6.48014 11.5616C6.44684 11.4716 6.3823 11.3965 6.29829 11.3502C6.21428 11.3038 6.1164 11.2892 6.02251 11.309C5.92861 11.3287 5.84496 11.3816 5.78681 11.458C5.72866 11.5343 5.69988 11.629 5.70574 11.7248C5.70907 11.8663 5.68331 12.0071 5.63006 12.1383C5.5768 12.2695 5.49719 12.3884 5.39614 12.4876C5.17403 12.6818 4.91765 12.8329 4.64014 12.9332C4.59195 12.9541 4.54838 12.9844 4.5119 13.0223C4.47543 13.0601 4.44677 13.1048 4.42756 13.1537C4.40836 13.2026 4.39898 13.2549 4.39997 13.3074C4.40096 13.3599 4.4123 13.4118 4.43334 13.46ZM17.2001 10.1C17.833 10.1 18.4517 9.91228 18.978 9.56066C19.5042 9.20904 19.9144 8.70926 20.1566 8.12454C20.3988 7.53982 20.4621 6.8964 20.3387 6.27566C20.2152 5.65492 19.9104 5.08474 19.4629 4.63721C19.0154 4.18968 18.4452 3.88491 17.8244 3.76144C17.2037 3.63797 16.5603 3.70134 15.9756 3.94354C15.3908 4.18574 14.8911 4.59589 14.5394 5.12213C14.1878 5.64837 14.0001 6.26705 14.0001 6.89995C14.0011 7.74835 14.3385 8.56173 14.9384 9.16164C15.5384 9.76155 16.3517 10.099 17.2001 10.1ZM17.2001 4.49995C17.5153 4.49995 17.8274 4.56203 18.1186 4.68264C18.4098 4.80325 18.6743 4.98004 18.8972 5.2029C19.1201 5.42576 19.2968 5.69033 19.4174 5.98151C19.5381 6.27269 19.6001 6.58478 19.6001 6.89995C19.6001 7.21513 19.5381 7.52721 19.4174 7.81839C19.2968 8.10957 19.1201 8.37415 18.8972 8.59701C18.6743 8.81987 18.4098 8.99665 18.1186 9.11726C17.8274 9.23788 17.5153 9.29995 17.2001 9.29995C16.5636 9.29995 15.9532 9.0471 15.5031 8.59701C15.053 8.14692 14.8001 7.53647 14.8001 6.89995C14.8001 6.26343 15.053 5.65298 15.5031 5.2029C15.9532 4.75281 16.5636 4.49995 17.2001 4.49995Z" fill="#303030"/>
</svg>
