<svg width="24" height="25" viewBox="0 0 24 25" fill="none" xmlns="http://www.w3.org/2000/svg">
<path fill-rule="evenodd" clip-rule="evenodd" d="M14.0968 1.26661C12.8858 0.244464 11.1142 0.244465 9.90323 1.26661L8.80035 2.19749C8.28563 2.63193 7.64869 2.89578 6.97753 2.95253L5.53944 3.07415C3.96037 3.20769 2.70769 4.46037 2.57415 6.03944L2.45253 7.47753C2.39578 8.14869 2.13193 8.78563 1.69749 9.30037L0.766607 10.4032C-0.255536 11.6142 -0.255535 13.3858 0.766607 14.5968L1.69749 15.6997C2.13193 16.2144 2.39578 16.8514 2.45253 17.5225L2.57415 18.9606C2.70769 20.5397 3.96037 21.7924 5.53944 21.9259L6.97753 22.0474C7.64869 22.1043 8.28563 22.3681 8.80037 22.8026L9.90323 23.7335C11.1142 24.7555 12.8858 24.7555 14.0968 23.7335L15.1997 22.8026C15.7144 22.3681 16.3514 22.1043 17.0225 22.0474L18.4606 21.9259C20.0397 21.7924 21.2924 20.5397 21.4259 18.9606L21.5474 17.5225C21.6043 16.8514 21.8681 16.2144 22.3026 15.6997L23.2335 14.5968C24.2555 13.3858 24.2555 11.6142 23.2335 10.4032L22.3026 9.30035C21.8681 8.78563 21.6043 8.14869 21.5474 7.47753L21.4259 6.03944C21.2924 4.46037 20.0397 3.20769 18.4606 3.07415L17.0225 2.95253C16.3514 2.89578 15.7144 2.63193 15.1997 2.19749L14.0968 1.26661ZM17.9113 10.2837C18.4826 9.7124 18.4826 8.78617 17.9113 8.21489C17.3401 7.6436 16.4138 7.6436 15.8425 8.21489L10.3753 13.6821L8.15892 11.4657C7.58764 10.8944 6.66141 10.8944 6.09013 11.4657C5.51883 12.037 5.51883 12.9632 6.09013 13.5345L9.34092 16.7852C9.9122 17.3565 10.8384 17.3565 11.4097 16.7852L17.9113 10.2837Z" fill="#3ED37A"/>
</svg>
