<svg width="20" height="21" viewBox="0 0 20 21" fill="none" xmlns="http://www.w3.org/2000/svg">
<path d="M13.5631 12.0144L10.7746 9.92303V5.66279C10.7746 5.23443 10.4283 4.88818 9.99995 4.88818C9.57159 4.88818 9.22534 5.23443 9.22534 5.66279V10.3104C9.22534 10.5544 9.33999 10.7844 9.53519 10.9301L12.6335 13.2538C12.7673 13.3545 12.9301 13.4089 13.0975 13.4088C13.3338 13.4088 13.5662 13.3026 13.718 13.0981C13.9752 12.7565 13.9055 12.2708 13.5631 12.0144Z" fill="#505050"/>
<path d="M10 0.248535C4.48566 0.248535 0 4.7342 0 10.2485C0 15.7629 4.48566 20.2485 10 20.2485C15.5143 20.2485 20 15.7629 20 10.2485C20 4.7342 15.5143 0.248535 10 0.248535ZM10 18.6994C5.34082 18.6994 1.54918 14.9077 1.54918 10.2485C1.54918 5.58936 5.34082 1.79771 10 1.79771C14.66 1.79771 18.4508 5.58936 18.4508 10.2485C18.4508 14.9077 14.6592 18.6994 10 18.6994Z" fill="#505050"/>
</svg>
