<svg width="24" height="21" viewBox="0 0 24 21" fill="none" xmlns="http://www.w3.org/2000/svg">
<path d="M21.4471 10.1174V4.02874C21.4471 3.11383 20.7028 2.36946 19.7878 2.36946H19.0345V1.5056C19.0345 0.734924 18.4075 0.107971 17.6369 0.107971C16.8662 0.107971 16.2392 0.734924 16.2392 1.5056V2.36941H14.4257V1.5056C14.4257 0.734924 13.7987 0.107971 13.0281 0.107971C12.2574 0.107971 11.6304 0.734924 11.6304 1.5056V2.36941H9.81689V1.5056C9.81689 0.734924 9.18994 0.107971 8.41927 0.107971C7.64859 0.107971 7.02164 0.734924 7.02164 1.5056V2.36941H5.20809V1.5056C5.20809 0.734924 4.58114 0.107971 3.81047 0.107971C3.0398 0.107971 2.4127 0.734924 2.4127 1.5056V2.36941H1.65928C0.744375 2.36941 0 3.11374 0 4.02874V4.20189C0.0015052 4.29399 0.0391474 4.38181 0.104809 4.4464C0.17047 4.511 0.25889 4.5472 0.351 4.5472C0.44311 4.5472 0.53153 4.511 0.597191 4.4464C0.662853 4.38181 0.700495 4.29399 0.702 4.20189V4.02874C0.702 3.50092 1.13147 3.07146 1.65928 3.07146H2.41261V3.93527C2.41261 4.70594 3.03956 5.33289 3.81023 5.33289C4.58091 5.33289 5.20786 4.70594 5.20786 3.93522V3.07146H7.02141V3.93527C7.02141 4.70594 7.64836 5.33289 8.41903 5.33289C9.1897 5.33289 9.81666 4.70594 9.81666 3.93522V3.07146H11.6302V3.93527C11.6302 4.70594 12.2572 5.33289 13.0278 5.33289C13.7985 5.33289 14.4255 4.70594 14.4255 3.93522V3.07146H16.239V3.93527C16.239 4.70594 16.866 5.33289 17.6366 5.33289C18.4073 5.33289 19.0343 4.70594 19.0343 3.93522V3.07146H19.7876C20.3154 3.07146 20.7449 3.50092 20.7449 4.02874V6.50608H0.702V5.60589C0.700495 5.51379 0.662853 5.42598 0.597191 5.36138C0.53153 5.29678 0.44311 5.26058 0.351 5.26058C0.25889 5.26058 0.17047 5.29678 0.104809 5.36138C0.0391474 5.42598 0.0015052 5.51379 0 5.60589L0 17.7194C0 18.6344 0.744375 19.3787 1.65928 19.3787H14.1419C15.1891 20.3191 16.5726 20.8921 18.0876 20.8921C19.3526 20.8921 20.5594 20.4978 21.5776 19.7521C21.6513 19.6965 21.7001 19.6142 21.7136 19.5229C21.727 19.4317 21.704 19.3388 21.6495 19.2643C21.595 19.1899 21.5133 19.1399 21.4223 19.1252C21.3312 19.1105 21.238 19.1322 21.1628 19.1857C20.2657 19.8428 19.2024 20.19 18.0876 20.19C15.2145 20.19 12.8772 17.8526 12.8772 14.9797C12.8772 12.1067 15.2146 9.76933 18.0876 9.76933C18.6074 9.76933 19.1251 9.8471 19.6221 10C19.6319 10.003 19.6416 10.0061 19.6515 10.0092C21.7627 10.675 23.298 12.6513 23.298 14.9797C23.298 16.1809 22.8792 17.3532 22.119 18.2806C22.0894 18.3162 22.0671 18.3573 22.0535 18.4015C22.0398 18.4457 22.0351 18.4922 22.0395 18.5383C22.0439 18.5844 22.0573 18.6292 22.0791 18.67C22.1009 18.7109 22.1305 18.747 22.1663 18.7764C22.2021 18.8057 22.2433 18.8277 22.2877 18.841C22.332 18.8544 22.3785 18.8588 22.4246 18.8541C22.4706 18.8494 22.5153 18.8356 22.556 18.8136C22.5967 18.7916 22.6327 18.7617 22.6618 18.7257C23.5247 17.6732 24 16.3428 24 14.9797C24 12.9666 22.9884 11.1856 21.4471 10.1174ZM4.50586 3.93522C4.50586 4.3188 4.19381 4.63085 3.81023 4.63085C3.42666 4.63085 3.11461 4.31885 3.11461 3.93522V1.5056C3.11461 1.12202 3.42661 0.809971 3.81023 0.809971C4.19381 0.809971 4.50586 1.12197 4.50586 1.5056V3.93522ZM9.1147 3.93522C9.1147 4.3188 8.80266 4.63085 8.41908 4.63085C8.0355 4.63085 7.72345 4.31885 7.72345 3.93522V1.5056C7.72345 1.12202 8.0355 0.809971 8.41908 0.809971C8.80266 0.809971 9.1147 1.12197 9.1147 1.5056V3.93522ZM13.7236 3.93522C13.7236 4.3188 13.4115 4.63085 13.028 4.63085C12.6444 4.63085 12.3323 4.31885 12.3323 3.93522V1.5056C12.3323 1.12202 12.6444 0.809971 13.028 0.809971C13.4115 0.809971 13.7236 1.12197 13.7236 1.5056V3.93522ZM18.3324 3.93522C18.3324 4.3188 18.0204 4.63085 17.6368 4.63085C17.2532 4.63085 16.9412 4.31885 16.9412 3.93522V1.5056C16.9412 1.12202 17.2532 0.809971 17.6368 0.809971C18.0204 0.809971 18.3324 1.12197 18.3324 1.5056V3.93522ZM9.00005 7.20808H12.447V10.5629H9.00005V7.20808ZM4.149 18.6767H1.65928C1.13147 18.6767 0.702 18.2472 0.702 17.7194V15.3218H4.14895L4.149 18.6767ZM4.149 14.6198H0.702V11.265H4.14895L4.149 14.6198ZM4.149 10.5629H0.702V7.20808H4.14895L4.149 10.5629ZM4.851 11.265H8.29795V14.6198H4.851V11.265ZM8.29805 18.6767H4.85109V15.3219H8.29805V18.6767ZM8.29805 10.5629H4.85109V7.20808H8.29805V10.5629ZM9 11.265H12.447V13.2065C12.3027 13.6652 12.2152 14.1399 12.1865 14.6199H9V11.265ZM13.4721 18.6767H9.00005V15.3219H12.1851C12.2547 16.5609 12.7013 17.7205 13.4721 18.6767ZM13.1491 11.733V11.265H13.4918C13.37 11.4153 13.2556 11.5715 13.1491 11.733ZM16.596 9.25806C15.6796 9.49713 14.8492 9.9513 14.1619 10.5629H13.1491V7.20808H16.596V9.25806ZM20.7451 9.69705C20.4152 9.53104 20.0704 9.39649 19.7152 9.29519L19.6926 9.28872C19.1703 9.1416 18.6303 9.06707 18.0877 9.06724C17.82 9.06728 17.5565 9.08547 17.2981 9.12011V7.20799H20.7451V9.69705Z" fill="#303030"/>
</svg>
