<svg width="49" height="48" viewBox="0 0 49 48" fill="none" xmlns="http://www.w3.org/2000/svg">
<path d="M7.65586 20.8364H6.99961V19.5239H14.3637V20.8364H7.65586ZM35.479 20.8364H34.8227V19.5239H42.1868V20.8364H35.479ZM35.479 16.8324H34.8227V15.5199H42.1868V16.8324H35.479ZM7.65586 16.8324H6.99961V15.5199H14.3637V16.8324H7.65586ZM24.3949 24.4111C27.3443 24.4111 29.7368 26.8027 29.7368 29.7549C29.7368 30.8527 29.4068 31.8727 28.8387 32.7202C28.998 32.7361 29.1546 32.7577 29.3093 32.7811C30.2262 31.9889 31.4543 31.5296 32.6974 31.4067C32.1106 30.5292 31.798 29.497 31.7993 28.4414C31.7987 27.533 32.0301 26.6395 32.4715 25.8455V20.3817H16.7149V25.8455C17.1563 26.6395 17.3877 27.533 17.3871 28.4414C17.3871 29.5392 17.0552 30.5592 16.489 31.4067C17.7087 31.5286 18.9096 31.973 19.8218 32.7333C19.864 32.7277 19.9071 32.7249 19.9493 32.7202C18.5299 30.5995 18.8168 27.7749 20.6159 25.9758C21.5834 25.0092 22.9174 24.4111 24.3949 24.4111ZM27.6396 33.9989C26.7415 34.6899 25.6146 35.0995 24.3949 35.0995C23.1724 35.0995 22.0455 34.6899 21.1474 33.9989H20.6421C19.4646 33.9989 18.4043 34.3449 17.644 34.9027C16.9427 35.4155 16.5068 36.1092 16.5068 36.8536V43.3561C17.2746 43.5896 18.0405 43.792 18.8084 43.9617V38.8224C18.8084 38.4586 19.1037 38.1661 19.4646 38.1661C19.8284 38.1661 20.1209 38.4586 20.1209 38.8224V44.2224C22.9699 44.7192 25.8134 44.767 28.6643 44.2805V38.8224C28.6643 38.4586 28.9596 38.1661 29.3205 38.1661C29.6824 38.1661 29.9768 38.4586 29.9768 38.8224V44.018C30.7446 43.8427 31.5105 43.627 32.2784 43.3692V36.8527C32.2784 36.1083 31.8424 35.4146 31.1412 34.9017C30.3809 34.3439 29.3205 33.998 28.144 33.998H27.6396V33.9989ZM27.244 26.9039C25.6709 25.3308 23.1171 25.3308 21.544 26.9039C19.8668 28.5811 19.9971 31.3317 21.7962 32.8383C23.4096 34.1911 25.7665 34.0824 27.244 32.6067C28.8199 31.0308 28.8199 28.4799 27.244 26.9039ZM19.399 45.4186C19.3596 45.4158 19.3193 45.4083 19.2818 45.397C18.0912 45.1636 16.9005 44.8552 15.7127 44.4774C15.6462 44.4642 15.588 44.4399 15.5318 44.4108C12.6987 44.7774 9.87117 44.6527 7.04086 44.108C7.00617 44.1024 6.96867 44.0949 6.93492 44.0864C5.7443 43.853 4.55086 43.5446 3.36023 43.1667C3.21343 43.1347 3.08197 43.0535 2.98767 42.9365C2.89337 42.8196 2.8419 42.6739 2.8418 42.5236V35.5402C2.8418 34.2961 3.54867 33.1964 4.64648 32.4445V8.1633H4.6493C4.6493 7.71986 5.09836 7.39267 5.52586 7.54924L16.233 11.4342C16.5096 11.5111 16.714 11.7642 16.714 12.067V19.0692H17.8643V16.8745C17.8643 16.5108 18.1568 16.2183 18.5205 16.2183H30.6621C31.0259 16.2183 31.3184 16.5108 31.3184 16.8745V19.0692H32.4687V12.067C32.4687 11.7642 32.673 11.512 32.9496 11.4342L43.6568 7.54924C44.0843 7.39267 44.5334 7.71892 44.5334 8.1633H44.5362V32.4445C45.634 33.1992 46.3409 34.297 46.3409 35.5402V42.5236C46.3409 42.8396 46.1177 43.103 45.8224 43.1667C44.6318 43.5446 43.4412 43.8521 42.2505 44.0864C41.6102 44.2402 40.0418 44.4399 39.3668 44.5036C37.3521 44.6892 35.3384 44.6527 33.3237 44.363C33.2717 44.4026 33.2134 44.4331 33.1512 44.453C28.6605 46.043 24.0977 46.3224 19.399 45.4186ZM30.9162 33.2658C32.4021 33.938 33.5918 35.2214 33.5918 36.8536V43.0805C36.2037 43.4442 38.824 43.3645 41.4152 42.9127V37.5099C41.4152 37.1489 41.7077 36.8536 42.0715 36.8536C42.4334 36.8536 42.7277 37.1489 42.7277 37.5099V42.652C43.4927 42.4795 44.2615 42.2771 45.0293 42.0464V35.5402C45.0293 34.7958 44.5934 34.1049 43.8921 33.5892C43.0812 32.9967 41.9974 32.6883 40.8949 32.6883H40.3896C39.4887 33.3764 38.3646 33.7861 37.1421 33.7861C35.9224 33.7861 34.7955 33.3764 33.8946 32.6883H33.3893C32.508 32.6892 31.6474 32.8833 30.9162 33.2658ZM15.1952 43.1302V36.8536C15.1952 35.137 16.5077 33.8161 18.0865 33.1758C17.4012 32.8542 16.6118 32.6892 15.7962 32.6892H15.2909C14.3586 33.4024 13.2171 33.7883 12.0434 33.787C10.8209 33.787 9.6968 33.3774 8.79586 32.6892H8.29055C7.18805 32.6892 6.10336 32.9977 5.29242 33.5902C4.59117 34.1058 4.15523 34.7967 4.15523 35.5411V42.0464C4.92305 42.278 5.69086 42.4795 6.4568 42.6492V37.5099C6.4568 37.1489 6.75211 36.8536 7.11305 36.8536C7.4768 36.8536 7.7693 37.1489 7.7693 37.5099V42.9099C10.2471 43.343 12.7212 43.433 15.1952 43.1302ZM37.143 24.4111C34.9005 24.4111 33.1118 26.2317 33.1118 28.4424C33.1118 30.6774 34.924 32.4736 37.143 32.4736C39.3649 32.4736 41.1743 30.6774 41.1743 28.4424C41.1743 26.2186 39.3696 24.4111 37.143 24.4111ZM33.784 24.2864C35.9102 22.5671 38.9899 22.732 40.9221 24.6661C42.7212 26.4624 43.0052 29.2899 41.5896 31.4077C42.169 31.4658 42.7193 31.5914 43.2265 31.7742V9.09892L33.784 12.5246V24.2864ZM12.0434 23.1014C13.3165 23.1014 14.4827 23.5449 15.4024 24.2864V12.5246L5.95992 9.09892V31.7752C6.46711 31.5914 7.01742 31.4667 7.5968 31.4086C6.18023 29.2908 6.4643 26.4633 8.26336 24.667C9.2318 23.6986 10.5687 23.1014 12.0434 23.1014ZM14.8915 25.5933C13.3184 24.0174 10.7646 24.0174 9.19148 25.5933C7.51711 27.2677 7.64461 30.0183 9.44648 31.5277C11.0571 32.8777 13.4168 32.7717 14.8915 31.2942C16.4674 29.7211 16.4674 27.1664 14.8915 25.5933ZM14.148 8.26455C13.8396 8.07611 13.744 7.67205 13.9324 7.3608C14.1209 7.05236 14.5249 6.95674 14.8334 7.14517L23.5315 12.5002L32.298 5.06486L31.4055 5.27767C31.0549 5.36299 30.7015 5.14455 30.6162 4.79392C30.5337 4.4433 30.7521 4.08986 31.1027 4.00736L34.5443 3.18049C35.0355 3.0633 35.464 3.52643 35.3205 4.00455H35.3234L34.4009 7.08424C34.3763 7.16681 34.3358 7.24374 34.2815 7.31063C34.2272 7.37752 34.1603 7.43305 34.0846 7.47406C34.0088 7.51507 33.9257 7.54075 33.84 7.54962C33.7544 7.5585 33.6678 7.55041 33.5852 7.5258C33.2393 7.42174 33.0434 7.05799 33.1437 6.71018L33.4043 5.84392L24.0471 13.7789C23.943 13.8802 23.8081 13.9438 23.6638 13.9598C23.5195 13.9758 23.3739 13.9431 23.2502 13.867L14.148 8.26455ZM30.0077 19.0692V17.5308H19.1787V19.0692H30.0077Z" fill="black"/>
</svg>
