<svg width="48" height="48" viewBox="0 0 48 48" fill="none" xmlns="http://www.w3.org/2000/svg">
<path d="M20.7796 33.5479L20.7705 29.6776M38.2818 29.6777L38.305 40.1385C38.3055 40.5603 37.8639 40.8345 37.487 40.6465L29.797 36.8085C29.7188 36.7694 29.6325 36.749 29.545 36.7489C29.4575 36.7488 29.3712 36.769 29.2929 36.808L26.0773 38.4072" stroke="black" stroke-width="1.40625" stroke-miterlimit="10" stroke-linecap="round" stroke-linejoin="round"/>
<path d="M45.6291 17.0794C45.7285 16.9304 45.7816 16.7552 45.7816 16.576C45.7816 16.3968 45.7285 16.2216 45.6291 16.0726L43.8675 13.4344C43.8178 13.3604 43.7981 13.2704 43.8103 13.1822L44.2547 10.0426C44.2801 9.86478 44.252 9.68348 44.174 9.52171C44.0961 9.35994 43.9717 9.22502 43.8169 9.13412L41.0831 7.5263C41.0064 7.48083 40.949 7.40877 40.9219 7.3238L39.96 4.3013C39.9058 4.13026 39.802 3.97916 39.6618 3.86717C39.5216 3.75518 39.3513 3.68734 39.1725 3.67224L36.0122 3.40412C35.9231 3.39662 35.8406 3.35724 35.7787 3.29255L33.6019 0.987241C33.4784 0.856708 33.3189 0.765745 33.1437 0.725861C32.9685 0.685976 32.7853 0.698963 32.6175 0.763178L29.6559 1.89849C29.5725 1.93037 29.4806 1.93037 29.3972 1.89849L26.4356 0.763178C26.2678 0.6989 26.0847 0.68588 25.9094 0.725768C25.7342 0.765655 25.5747 0.856655 25.4513 0.987241L23.2734 3.29255C23.2125 3.35724 23.13 3.39662 23.0409 3.40412L19.8806 3.67224C19.7018 3.68746 19.5314 3.75534 19.3911 3.8673C19.2508 3.97925 19.1467 4.13028 19.0922 4.3013L18.1303 7.3238C18.1041 7.40912 18.0459 7.48037 17.9691 7.5263L15.2363 9.13412C15.0813 9.22496 14.9568 9.35983 14.8787 9.52159C14.8006 9.68335 14.7723 9.86469 14.7975 10.0426L15.2428 13.1822C15.255 13.2704 15.2344 13.3604 15.1856 13.4344L13.4241 16.0726C13.3246 16.2216 13.2715 16.3968 13.2715 16.576C13.2715 16.7552 13.3246 16.9304 13.4241 17.0794L15.1856 19.7176C15.2344 19.7916 15.255 19.8816 15.2428 19.9697L14.7975 23.1094C14.7723 23.2873 14.8006 23.4686 14.8787 23.6304C14.9568 23.7921 15.0813 23.927 15.2363 24.0179L17.9691 25.6257C18.0459 25.6707 18.1041 25.7429 18.1303 25.8282L19.0922 28.8507C19.1467 29.0217 19.2508 29.1727 19.3911 29.2847C19.5314 29.3966 19.7018 29.4645 19.8806 29.4797L23.0409 29.7469C23.13 29.7544 23.2125 29.7947 23.2734 29.8594L25.4513 32.1647C25.5747 32.2953 25.7342 32.3863 25.9094 32.4262C26.0847 32.4661 26.2678 32.4531 26.4356 32.3888L29.3972 31.2535C29.4806 31.2216 29.5725 31.2216 29.6559 31.2535L32.6175 32.3888C32.9606 32.5201 33.3487 32.4319 33.6019 32.1647L35.7787 29.8594C35.8406 29.7947 35.9231 29.7544 36.0122 29.7469L39.1725 29.4797C39.5381 29.4488 39.8484 29.2004 39.96 28.8507L40.9219 25.8282C40.9491 25.7429 41.0063 25.6716 41.0831 25.6257L43.8169 24.0179C43.9717 23.927 44.0961 23.792 44.174 23.6303C44.252 23.4685 44.2801 23.2872 44.2547 23.1094L43.8103 19.9697C43.7981 19.8816 43.8178 19.7916 43.8675 19.7176L45.6291 17.0794Z" stroke="black" stroke-width="1.40625" stroke-miterlimit="10" stroke-linecap="round" stroke-linejoin="round"/>
<path d="M22.6433 8.00347C20.1364 10.0182 18.5323 13.1091 18.5323 16.576C18.5323 22.6472 23.4542 27.57 29.5264 27.57C31.5561 27.57 33.4573 27.0197 35.0886 26.0607M25.4783 6.35066C26.7308 5.85472 28.0967 5.58191 29.5264 5.58191C35.5977 5.58191 40.5205 10.5038 40.5205 16.576C40.5205 19.4297 39.433 22.0303 37.6489 23.9841M8.52734 40.7072H10.9302C11.6783 40.7072 12.4058 40.9528 12.9973 41.4047L19.4661 46.3557C20.2564 46.966 21.2305 47.2969 22.2336 47.2969H28.5505M31.8317 47.2969H37.8748C38.1852 47.2969 38.4664 47.1732 38.6698 46.9716C38.8733 46.771 38.9989 46.4935 38.9989 46.1869C38.9989 44.3475 37.4895 42.8569 35.6267 42.8569L24.7077 42.8532H24.6627" stroke="black" stroke-width="1.40625" stroke-miterlimit="10" stroke-linecap="round" stroke-linejoin="round"/>
<path d="M16.0066 35.5388L23.9688 42.5794C24.1825 42.7632 24.4459 42.8532 24.7075 42.8532C25.0216 42.8532 25.3328 42.7238 25.555 42.4726C26.7794 41.086 26.6341 38.9822 25.2297 37.7738L18.3606 31.6294C17.2872 30.6994 15.9953 30.0647 14.6172 29.7741M11.3359 29.5913H8.47094M4.03487 28.9778H2.21875M4.03487 41.4168H2.21875M35.5816 39.2936V30.1781M23.4707 36.0095V30.2679M29.5261 36.4456V31.3754M29.9694 9.78202L31.7937 13.4784C31.8292 13.5503 31.8816 13.6124 31.9464 13.6595C32.0113 13.7067 32.0866 13.7373 32.1659 13.7489L36.245 14.3416C36.6505 14.4005 36.8124 14.8989 36.519 15.1848L33.5672 18.062C33.5098 18.118 33.4669 18.187 33.4421 18.2632C33.4174 18.3395 33.4115 18.4206 33.425 18.4996L34.1219 22.5623C34.1912 22.9662 33.7672 23.2742 33.4046 23.0835L29.756 21.1653C29.6851 21.128 29.6061 21.1085 29.526 21.1085C29.4458 21.1085 29.3669 21.128 29.2959 21.1653L25.6473 23.0835C25.2847 23.2742 24.8608 22.9662 24.9301 22.5623L25.6269 18.4996C25.6405 18.4206 25.6346 18.3395 25.6098 18.2632C25.585 18.187 25.5421 18.118 25.4847 18.062L22.533 15.1848C22.2395 14.8988 22.4014 14.4005 22.8069 14.3416L26.8861 13.7489C26.9654 13.7373 27.0407 13.7067 27.1055 13.6596C27.1704 13.6125 27.2228 13.5503 27.2583 13.4784L29.0825 9.78202C29.2641 9.41462 29.7881 9.41462 29.9694 9.78202ZM4.12759 28.9778C4.12759 28.4584 4.54862 28.0374 5.068 28.0374H7.53025C8.04962 28.0374 8.47066 28.4584 8.47066 28.9778V41.4168C8.47066 41.9362 8.04962 42.3572 7.53025 42.3572H5.068C4.54862 42.3572 4.12759 41.9362 4.12759 41.4168V28.9778Z" stroke="black" stroke-width="1.40625" stroke-miterlimit="10" stroke-linecap="round" stroke-linejoin="round"/>
</svg>
