<svg width="22" height="23" viewBox="0 0 22 23" fill="none" xmlns="http://www.w3.org/2000/svg">
<path d="M20.1096 17.0757C21.1392 15.3984 21.6829 13.4682 21.6802 11.5002C21.6829 9.5321 21.1392 7.60163 20.1096 5.92429L20.1039 5.91494C19.1487 4.35811 17.8103 3.07224 16.2165 2.1802C14.6226 1.28816 12.8267 0.819763 11.0002 0.819763C9.17372 0.819763 7.37776 1.28816 5.78393 2.1802C4.1901 3.07224 2.85167 4.35811 1.89652 5.91494L1.89076 5.92429C0.863774 7.60276 0.320312 9.53225 0.320312 11.5C0.320312 13.4677 0.863774 15.3972 1.89076 17.0757L1.89676 17.0853C2.85194 18.642 4.19038 19.9278 5.7842 20.8198C7.37802 21.7118 9.17395 22.1801 11.0004 22.1801C12.8268 22.1801 14.6227 21.7117 16.2165 20.8197C17.8103 19.9276 19.1487 18.6418 20.1039 17.085L20.1096 17.0757ZM12.3653 20.3495C12.1618 20.5459 11.9275 20.7077 11.6717 20.8285C11.4619 20.9282 11.2324 20.98 11.0001 20.98C10.7677 20.98 10.5383 20.9282 10.3284 20.8285C9.84185 20.58 9.42532 20.2135 9.11692 19.7625C8.48712 18.8523 8.0204 17.8395 7.73764 16.7694C8.82404 16.7025 9.91156 16.6685 11.0002 16.6672C12.0884 16.6672 13.176 16.7013 14.263 16.7694C14.1064 17.3196 13.9109 17.8579 13.6779 18.3803C13.371 19.115 12.9254 19.7836 12.3653 20.3495ZM1.54108 12.1H5.84884C5.87691 13.302 6.00722 14.4994 6.23836 15.6793C5.06076 15.783 3.8862 15.9254 2.71468 16.1065C2.02858 14.8757 1.62752 13.5065 1.54108 12.1ZM2.71468 6.89365C3.88572 7.07509 5.06068 7.2175 6.23956 7.32086C6.00801 8.50064 5.87746 9.69801 5.84932 10.9H1.54108C1.62755 9.49354 2.02861 8.12445 2.71468 6.89365ZM9.63508 2.65046C9.83862 2.45404 10.0729 2.29222 10.3287 2.17142C10.5385 2.0717 10.768 2.01997 11.0003 2.01997C11.2327 2.01997 11.4621 2.0717 11.672 2.17142C12.1585 2.41995 12.5751 2.78647 12.8835 3.2375C13.5133 4.14767 13.98 5.16044 14.2628 6.23054C13.1764 6.29741 12.0888 6.33149 11.0002 6.33277C9.91204 6.33277 8.82444 6.29869 7.7374 6.23054C7.89394 5.68036 8.08948 5.14204 8.32252 4.61966C8.62938 3.88498 9.07504 3.21638 9.63508 2.65046ZM20.4593 10.9H16.1516C16.1235 9.69797 15.9932 8.50053 15.762 7.32061C16.9396 7.21693 18.1142 7.07453 19.2857 6.89341C19.9718 8.12428 20.3729 9.49346 20.4593 10.9ZM7.44532 15.586C7.21067 14.4379 7.07815 13.2714 7.04932 12.1H14.9513C14.9228 13.2714 14.7905 14.4381 14.556 15.5862C13.372 15.5085 12.1868 15.4688 11.0002 15.4672C9.8146 15.4672 8.62964 15.5068 7.44532 15.586ZM14.5551 7.41397C14.7897 8.56201 14.9222 9.72856 14.9511 10.9H7.04932C7.07788 9.7285 7.21016 8.56186 7.4446 7.41373C8.6286 7.49149 9.81388 7.53118 11.0004 7.53278C12.186 7.53278 13.371 7.49309 14.5553 7.41373L14.5551 7.41397ZM16.1511 12.1H20.4593C20.3728 13.5064 19.9718 14.8755 19.2857 16.1063C18.1145 15.9249 16.9396 15.7825 15.7608 15.6791C15.9924 14.4993 16.1229 13.3019 16.1511 12.1ZM18.5662 5.78917C17.5422 5.93685 16.5152 6.05381 15.4853 6.14006C15.3002 5.45078 15.0615 4.77705 14.7713 4.12502C14.5063 3.52503 14.1729 2.95767 13.7777 2.43422C15.6875 3.01997 17.3635 4.19418 18.5662 5.78917ZM4.297 4.79654C5.39258 3.6999 6.74045 2.88876 8.22244 2.43422C8.19988 2.4635 8.17684 2.49134 8.15476 2.52086C7.39299 3.61739 6.83811 4.84396 6.51748 6.14006C5.4874 6.05286 4.45972 5.93589 3.43444 5.78917C3.69883 5.43888 3.98703 5.10722 4.297 4.79654ZM3.43444 17.2108C4.45828 17.0631 5.48524 16.9461 6.51532 16.8599C6.70041 17.5492 6.93914 18.2229 7.22932 18.8749C7.4943 19.4749 7.82771 20.0423 8.22292 20.5657C6.31309 19.98 4.63716 18.8058 3.43444 17.2108ZM17.7039 18.2034C16.6083 19.3001 15.2604 20.1112 13.7784 20.5657C13.801 20.5365 13.824 20.5086 13.8461 20.4791C14.6079 19.3826 15.1628 18.156 15.4834 16.8599C16.5135 16.9471 17.5412 17.0641 18.5664 17.2108C18.302 17.5611 18.0138 17.8927 17.7039 18.2034Z" fill="#303030"/>
</svg>
