<svg width="49" height="48" viewBox="0 0 49 48" fill="none" xmlns="http://www.w3.org/2000/svg">
<g clip-path="url(#clip0_220_1557)">
<path d="M46.6721 13.2942L27.1945 4.94647C25.4821 4.21263 23.5169 4.2132 21.8024 4.94791L2.32905 13.2937C1.2009 13.7771 0.5 14.8399 0.5 16.0671C0.5 17.2938 1.20042 18.3559 2.3279 18.8391L4.62981 19.8257C4.62742 19.8495 4.62617 19.8736 4.62617 19.8979V30.791C3.7364 31.0916 3.09374 31.9337 3.09374 32.9236C3.09374 33.4975 3.31 34.0217 3.66486 34.4197C3.27236 34.8045 3.01175 35.3261 2.95793 35.9171L2.40644 41.9838C2.38799 42.1893 2.41244 42.3963 2.47824 42.5917C2.54405 42.7872 2.64976 42.9668 2.78869 43.1193C2.92791 43.2714 3.09725 43.393 3.28595 43.4762C3.47466 43.5595 3.67861 43.6026 3.88486 43.6028H6.80404C7.2201 43.6028 7.61968 43.4265 7.90021 43.1193C8.03915 42.9668 8.14487 42.7872 8.21067 42.5917C8.27648 42.3963 8.30092 42.1893 8.28246 41.9838L7.73097 35.9171C7.67724 35.3262 7.41654 34.8046 7.02404 34.4197C7.3789 34.0218 7.59516 33.4976 7.59516 32.9236C7.59516 31.9338 6.9525 31.0917 6.06273 30.791V20.4398L9.99323 22.1244C9.99081 22.1483 9.98959 22.1724 9.98959 22.1965V27.681C9.98959 29.9699 11.5569 32.0875 14.4029 33.6437C17.1117 35.1248 20.6976 35.9405 24.4998 35.9405C28.3021 35.9405 31.888 35.1248 34.5967 33.6437C37.4426 32.0875 39.01 29.9699 39.01 27.681V22.1965C39.01 22.1722 39.0088 22.1481 39.0064 22.1245L46.6709 18.8397C47.799 18.3562 48.4999 17.2934 48.4999 16.0662C48.5 14.8396 47.7996 13.7774 46.6721 13.2942ZM6.83939 42.1505C6.82521 42.1661 6.80979 42.1661 6.80404 42.1661H3.88486C3.87901 42.1661 3.86369 42.1661 3.84951 42.1505C3.83524 42.1349 3.83668 42.1196 3.83716 42.1139L4.38864 36.0472C4.40932 35.8083 4.5191 35.5859 4.69619 35.4242C4.87327 35.2625 5.1047 35.1733 5.3445 35.1744C5.58428 35.1733 5.81569 35.2625 5.99275 35.4242C6.16981 35.5859 6.27958 35.8083 6.30026 36.0472L6.85174 42.1138C6.85232 42.1196 6.85366 42.1349 6.83939 42.1505ZM5.3445 33.7377C4.89559 33.7377 4.53039 33.3725 4.53039 32.9236C4.53039 32.4747 4.89559 32.1095 5.3445 32.1095C5.79341 32.1095 6.1586 32.4747 6.1586 32.9236C6.1586 33.3725 5.79341 33.7377 5.3445 33.7377ZM37.5735 24.6162C37.5735 26.4737 36.0447 28.2872 33.3791 29.5918C33.2944 29.6333 33.2186 29.691 33.1562 29.7618C33.0938 29.8325 33.046 29.9148 33.0154 30.0041C32.9848 30.0933 32.9721 30.1877 32.978 30.2818C32.9839 30.376 33.0083 30.468 33.0497 30.5527C33.0912 30.6375 33.1489 30.7132 33.2197 30.7756C33.2904 30.8381 33.3728 30.8859 33.462 30.9165C33.5513 30.9471 33.6456 30.9598 33.7398 30.9539C33.834 30.948 33.926 30.9236 34.0108 30.8821C35.4893 30.1585 36.6738 29.277 37.5184 28.2968C37.2491 29.8116 35.9912 31.244 33.9077 32.3832C31.4066 33.7508 28.0656 34.5039 24.5 34.5039C20.9344 34.5039 17.5934 33.7508 15.0923 32.3832C13.0163 31.2481 11.7597 29.822 11.4843 28.3132C12.2104 29.1502 13.1901 29.9156 14.403 30.5789C17.1118 32.06 20.6977 32.8757 24.4999 32.8757C25.5636 32.8757 26.6245 32.811 27.6532 32.6834C27.7468 32.6718 27.8372 32.6419 27.9192 32.5953C28.0013 32.5488 28.0734 32.4865 28.1314 32.4121C28.1893 32.3377 28.2321 32.2526 28.2572 32.1617C28.2823 32.0707 28.2892 31.9757 28.2776 31.8821C28.2661 31.7885 28.2362 31.6981 28.1896 31.616C28.1431 31.5339 28.0808 31.4618 28.0064 31.4038C27.932 31.3458 27.8469 31.3031 27.7559 31.278C27.665 31.2529 27.57 31.246 27.4764 31.2577C26.5061 31.3781 25.5047 31.4391 24.4999 31.4391C20.9343 31.4391 17.5933 30.686 15.0922 29.3184C12.7282 28.0258 11.4263 26.3559 11.4263 24.6162V22.7386L21.8055 27.187C22.6612 27.5537 23.5799 27.737 24.499 27.737C25.4193 27.737 26.3399 27.5532 27.1976 27.1856L37.5735 22.7388V24.6162ZM46.105 17.5192L26.6315 25.8649C25.2768 26.4455 23.7241 26.446 22.3715 25.8664L7.48866 19.4879L21.1253 17.1163C21.7387 17.8422 22.9886 18.3175 24.4999 18.3175C26.6567 18.3175 28.2831 17.3499 28.2831 16.0668C28.2831 14.7836 26.6567 13.816 24.4999 13.816C22.5411 13.816 21.0199 14.6142 20.7572 15.722L5.22143 18.4238C5.17674 18.4317 5.1329 18.4438 5.0905 18.4599L2.89395 17.5185C2.29448 17.2618 1.93666 16.7191 1.93666 16.0671C1.93666 15.4145 2.29496 14.8713 2.895 14.6141L22.3684 6.26829C23.0425 5.98027 23.768 5.83202 24.5011 5.83251C25.227 5.83251 25.9528 5.97732 26.6285 6.26685L46.1062 14.6146C46.7055 14.8715 47.0633 15.4141 47.0633 16.0661C47.0633 16.7189 46.705 17.2621 46.105 17.5192ZM22.1534 16.0669C22.1534 15.8576 22.9602 15.2528 24.4999 15.2528C26.0396 15.2528 26.8464 15.8576 26.8464 16.0669C26.8464 16.2761 26.0396 16.881 24.4999 16.881C22.9602 16.881 22.1534 16.276 22.1534 16.0669Z" fill="black"/>
<path d="M29.8632 32.2844C29.9167 32.2844 29.9711 32.2784 30.0255 32.2658C30.5601 32.1426 31.0896 31.9984 31.6128 31.8334C31.9911 31.7138 32.2007 31.3102 32.0811 30.9319C31.9615 30.5537 31.558 30.3439 31.1796 30.4636C30.6926 30.6171 30.1997 30.7513 29.7022 30.8659C29.5166 30.9088 29.3556 31.0237 29.2546 31.1852C29.1537 31.3468 29.1211 31.5418 29.1639 31.7275C29.2005 31.8856 29.2895 32.0268 29.4164 32.1279C29.5434 32.229 29.7009 32.2842 29.8632 32.2844Z" fill="black"/>
</g>
<defs>
<clipPath id="clip0_220_1557">
<rect width="48" height="48" fill="white" transform="translate(0.5)"/>
</clipPath>
</defs>
</svg>
