<svg width="21" height="20" viewBox="0 0 21 20" fill="none" xmlns="http://www.w3.org/2000/svg">
<g clip-path="url(#clip0_1284_7854)">
<path d="M20.5 10C20.5 4.47715 16.0228 0 10.5 0C4.97715 0 0.5 4.47715 0.5 10C0.5 15.5228 4.97715 20 10.5 20C16.0228 20 20.5 15.5228 20.5 10Z" fill="url(#paint0_linear_1284_7854)"/>
<path d="M18.0262 3.42105C16.5683 6.09737 14.5065 8.85789 11.9302 11.4342C9.35384 14.0105 6.59331 16.0684 3.92094 17.5263C3.7534 17.3807 3.59068 17.2289 3.43278 17.0711C2.47838 16.1485 1.7172 15.0452 1.19362 13.8254C0.670039 12.6057 0.394537 11.2939 0.383179 9.96655C0.371821 8.63921 0.624834 7.3229 1.12746 6.09436C1.6301 4.86581 2.37229 3.74963 3.31076 2.8109C4.24923 1.87217 5.3652 1.12967 6.5936 0.626691C7.822 0.123717 9.13825 -0.129663 10.4656 -0.118676C11.7929 -0.107688 13.1048 0.167447 14.3247 0.690688C15.5446 1.21393 16.6481 1.9748 17.5709 2.92895C17.7288 3.08684 17.8806 3.25087 18.0262 3.42105Z" fill="white" fill-opacity="0.0627451"/>
<path d="M12.8679 4.73682H8.13107C7.36333 4.73682 6.62705 5.0418 6.08418 5.58467C5.54131 6.12753 5.23633 6.86382 5.23633 7.63155V12.3684C5.23633 13.1361 5.54131 13.8724 6.08418 14.4153C6.62705 14.9582 7.36333 15.2631 8.13107 15.2631H12.8679C13.6356 15.2631 14.3719 14.9582 14.9148 14.4153C15.4577 13.8724 15.7626 13.1361 15.7626 12.3684V7.63155C15.7626 6.86382 15.4577 6.12753 14.9148 5.58467C14.3719 5.0418 13.6356 4.73682 12.8679 4.73682ZM14.8416 11.9526C14.8416 12.5863 14.5898 13.1941 14.1417 13.6422C13.6936 14.0903 13.0858 14.3421 12.4521 14.3421H8.54685C7.91313 14.3421 7.30535 14.0903 6.85724 13.6422C6.40913 13.1941 6.15738 12.5863 6.15738 11.9526V8.04734C6.15738 7.41361 6.40913 6.80584 6.85724 6.35773C7.30535 5.90962 7.91313 5.65787 8.54685 5.65787H12.4521C13.0858 5.65787 13.6936 5.90962 14.1417 6.35773C14.5898 6.80584 14.8416 7.41361 14.8416 8.04734V11.9526Z" fill="white"/>
<path d="M12.4197 8.09997L12.3947 8.07497L12.3737 8.05392C11.8762 7.55814 11.2024 7.2799 10.5 7.28024C10.1453 7.28265 9.7946 7.35492 9.46785 7.49292C9.14111 7.63092 8.84476 7.83195 8.59573 8.08452C8.34671 8.33709 8.14988 8.63625 8.01651 8.96491C7.88314 9.29357 7.81583 9.64529 7.81843 9.99997C7.8179 10.7198 8.10163 11.4107 8.60791 11.9223C8.85589 12.1733 9.15139 12.3724 9.47716 12.508C9.80293 12.6435 10.1524 12.7128 10.5053 12.7118C11.0345 12.7007 11.5491 12.5358 11.9863 12.2373C12.4235 11.9388 12.7643 11.5195 12.9673 11.0306C13.1702 10.5416 13.2265 10.0042 13.1293 9.48384C13.0321 8.96347 12.7855 8.48263 12.4197 8.09997ZM10.5 11.7842C10.1461 11.7891 9.79872 11.6887 9.50204 11.4957C9.20536 11.3027 8.97278 11.0258 8.8339 10.7003C8.69501 10.3747 8.6561 10.0152 8.72209 9.66747C8.78808 9.31973 8.95601 8.99949 9.20451 8.74745C9.45302 8.49542 9.77086 8.32299 10.1176 8.25209C10.4644 8.1812 10.8244 8.21504 11.1519 8.34932C11.4794 8.4836 11.7595 8.71224 11.9567 9.00617C12.1539 9.3001 12.2592 9.64603 12.2592 9.99997C12.261 10.2327 12.2168 10.4634 12.1293 10.679C12.0418 10.8947 11.9127 11.0909 11.7493 11.2566C11.586 11.4223 11.3915 11.5542 11.1772 11.6447C10.9628 11.7352 10.7327 11.7826 10.5 11.7842ZM13.9776 7.15524C13.9783 7.23967 13.9624 7.32341 13.9307 7.40166C13.8989 7.47992 13.8521 7.55115 13.7928 7.61128C13.7336 7.67141 13.663 7.71926 13.5852 7.75209C13.5074 7.78492 13.4239 7.80209 13.3395 7.8026C13.2558 7.80256 13.1729 7.78591 13.0956 7.75362C13.0184 7.72132 12.9483 7.67401 12.8895 7.61445C12.8003 7.524 12.7397 7.40939 12.7151 7.28481C12.6905 7.16023 12.703 7.03116 12.751 6.91362C12.7991 6.79608 12.8806 6.69522 12.9854 6.62356C13.0903 6.5519 13.2138 6.51259 13.3408 6.5105C13.4894 6.51047 13.6333 6.56263 13.7474 6.65787L13.7605 6.67102C13.7818 6.6883 13.8012 6.7077 13.8184 6.72892L13.8329 6.74471C13.9271 6.86074 13.9782 7.00579 13.9776 7.15524Z" fill="white"/>
</g>
<defs>
<linearGradient id="paint0_linear_1284_7854" x1="3.42895" y1="2.92895" x2="17.5711" y2="17.0711" gradientUnits="userSpaceOnUse">
<stop stop-color="#FAE100"/>
<stop offset="0.15" stop-color="#FCB720"/>
<stop offset="0.3" stop-color="#FF7950"/>
<stop offset="0.5" stop-color="#FF1C74"/>
<stop offset="1" stop-color="#6C1CD1"/>
</linearGradient>
<clipPath id="clip0_1284_7854">
<rect width="20" height="20" fill="white" transform="translate(0.5)"/>
</clipPath>
</defs>
</svg>
