<svg width="24" height="25" viewBox="0 0 24 25" fill="none" xmlns="http://www.w3.org/2000/svg">
<g clip-path="url(#clip0_162_368)">
<path d="M8.71875 21.3125H15.2812M8.625 19.9062H15.375M8.25 18.5H15.75M14.1094 22.7188V23.1875C14.1094 23.7053 13.6897 24.125 13.1719 24.125H10.8281C10.3103 24.125 9.89062 23.7053 9.89062 23.1875V22.7188" stroke="#303030" stroke-width="0.703125" stroke-miterlimit="10"/>
<path d="M3.09375 9.78125C3.09375 4.86247 7.08122 0.875 12 0.875C16.9188 0.875 20.9062 4.86247 20.9062 9.78125C20.9062 12.8716 19.3322 15.5943 16.9421 17.1914C15.9029 17.8858 15.2812 19.0552 15.2812 20.3052V21.7812C15.2812 22.299 14.8615 22.7188 14.3438 22.7188H9.65625C9.13847 22.7188 8.71875 22.299 8.71875 21.7812V20.3052C8.71875 19.0553 8.09709 17.8859 7.05792 17.1914C4.66781 15.5943 3.09375 12.8716 3.09375 9.78125Z" stroke="#303030" stroke-width="0.703125" stroke-miterlimit="10" stroke-dasharray="14.81 0.7"/>
<path d="M0 9.9219H1.78125M22.2188 9.9219H24M0.723703 14.0261L2.39752 13.4169M21.6025 6.4269L23.2763 5.81767M2.80748 17.6354L4.17197 16.4904M19.828 3.3534L21.1925 2.20844M23.2763 14.0261L21.6025 13.4169M2.39752 6.4269L0.723703 5.81767M21.1925 17.6354L19.828 16.4904M4.17197 3.3534L2.80748 2.20844M12 4.4695C12.3144 4.1882 12.7286 4.01565 13.1842 4.01565C13.9611 4.01565 14.6197 4.51394 14.861 5.20689C14.8943 5.20408 14.9264 5.1969 14.9605 5.1969C15.6145 5.1969 16.1447 5.72575 16.1447 6.37815C16.1447 6.48784 16.1249 6.59195 16.0969 6.69273C16.9601 6.81348 17.625 7.55101 17.625 8.44534C17.625 9.08631 17.2827 9.64604 16.7716 9.9572C17.1088 10.2278 17.3289 10.6378 17.3289 11.1032C17.3289 11.676 16.9985 12.167 16.5205 12.4119C16.655 12.6342 16.7369 12.8918 16.7369 13.1703C16.7369 13.9521 16.1259 14.5854 15.3553 14.637C15.0245 15.3401 14.3104 15.8282 13.4803 15.8282C12.9 15.8282 12.3762 15.5897 12 15.2064M12 4.4695C11.6856 4.18825 11.2714 4.01565 10.8158 4.01565C10.0389 4.01565 9.3803 4.51394 9.13903 5.20689C9.10566 5.20408 9.07359 5.1969 9.03947 5.1969C8.38542 5.1969 7.85527 5.72575 7.85527 6.37815C7.85527 6.48784 7.87509 6.59195 7.90313 6.69273C7.03992 6.81343 6.375 7.55097 6.375 8.44534C6.375 9.08631 6.71733 9.64604 7.22841 9.9572C6.89119 10.2279 6.67106 10.6378 6.67106 11.1032C6.67106 11.676 7.00153 12.167 7.47947 12.4119C7.34508 12.6342 7.26314 12.8918 7.26314 13.1703C7.26314 13.9521 7.87411 14.5854 8.64469 14.637C8.97548 15.3401 9.68958 15.8282 10.5197 15.8282C11.1 15.8282 11.6238 15.5897 12 15.2064M12 4.4695V15.2064" stroke="#303030" stroke-width="0.703125" stroke-miterlimit="10"/>
<path d="M7.90323 6.69268C7.90323 6.69268 8.83605 6.54685 9.39855 7.53122M16.097 6.69268C16.097 6.69268 15.1642 6.54685 14.6017 7.53122M8.6448 14.6369C8.6448 14.6369 9.96105 14.7031 9.82042 13.2265M7.22852 9.95715C7.22852 9.95715 8.41417 9.14841 9.25792 10.7656M15.3554 14.6369C15.3554 14.6369 14.0392 14.7031 14.1798 13.2265M16.7717 9.95715C16.7717 9.95715 15.586 9.14841 14.7423 10.7656M19.5001 11V10.2968M19.5001 9.54685V8.84372" stroke="#303030" stroke-width="0.703125" stroke-miterlimit="10"/>
</g>
<defs>
<clipPath id="clip0_162_368">
<rect width="24" height="24" fill="white" transform="translate(0 0.5)"/>
</clipPath>
</defs>
</svg>
