<svg width="21" height="20" viewBox="0 0 21 20" fill="none" xmlns="http://www.w3.org/2000/svg">
<g clip-path="url(#clip0_1284_7842)">
<path d="M10.5 19.9998C16.0228 19.9998 20.5 15.5226 20.5 9.99976C20.5 4.47691 16.0228 -0.000244141 10.5 -0.000244141C4.97715 -0.000244141 0.5 4.47691 0.5 9.99976C0.5 15.5226 4.97715 19.9998 10.5 19.9998Z" fill="#007AB9"/>
<path d="M16.475 10.8045V14.9273H14.0847V11.0808C14.0847 10.115 13.7396 9.45542 12.8741 9.45542C12.2137 9.45542 11.8213 9.89947 11.6481 10.3294C11.5851 10.4831 11.5689 10.6965 11.5689 10.912V14.9271H9.17845C9.17845 14.9271 9.21054 8.41243 9.17845 7.73807H11.5691V8.75682C11.5643 8.76484 11.5575 8.77269 11.5532 8.78035H11.5691V8.75682C11.8867 8.26803 12.4533 7.56926 13.7234 7.56926C15.296 7.56926 16.475 8.59675 16.475 10.8045ZM6.67783 4.27271C5.86015 4.27271 5.3252 4.80944 5.3252 5.51464C5.3252 6.20486 5.84464 6.75711 6.64645 6.75711H6.66196C7.49568 6.75711 8.01406 6.20486 8.01406 5.51464C7.9982 4.80944 7.49568 4.27271 6.67783 4.27271ZM5.46727 14.9273H7.85684V7.73807H5.46727V14.9273Z" fill="#F1F2F2"/>
</g>
<defs>
<clipPath id="clip0_1284_7842">
<rect width="20" height="20" fill="white" transform="translate(0.5)"/>
</clipPath>
</defs>
</svg>
