<svg width="24" height="18" viewBox="0 0 24 18" fill="none" xmlns="http://www.w3.org/2000/svg">
<path d="M2.51767 16.0767L2.27572 7.78924C2.86492 7.57442 3.28354 7.06783 3.28343 6.484L3.26621 5.67317V5.67007L3.17442 1.35428C3.17195 1.23939 3.07686 1.14533 2.96197 1.1507C2.93465 1.15127 2.90771 1.15723 2.88269 1.16822C2.85768 1.17921 2.83507 1.19502 2.81616 1.21475C2.79726 1.23448 2.78242 1.25774 2.77251 1.2832C2.7626 1.30867 2.7578 1.33583 2.75839 1.36315L2.84636 5.49743C2.72054 5.51434 2.53253 5.5359 2.30079 5.55147V1.35872C2.30079 1.30352 2.27886 1.25058 2.23983 1.21155C2.2008 1.17252 2.14786 1.15059 2.09266 1.15059C2.03747 1.15059 1.98453 1.17252 1.9455 1.21155C1.90647 1.25058 1.88454 1.30352 1.88454 1.35872V5.56993C1.72366 5.57344 1.55132 5.57292 1.37125 5.56591V1.35872C1.37125 1.30352 1.34932 1.25058 1.31029 1.21155C1.27126 1.17252 1.21833 1.15059 1.16313 1.15059C1.10793 1.15059 1.055 1.17252 1.01597 1.21155C0.976935 1.25058 0.955008 1.30352 0.955008 1.35872V5.5391C0.782123 5.52333 0.609904 5.50097 0.438726 5.47206L0.525254 1.36346C0.526415 1.30828 0.505608 1.25489 0.46741 1.21505C0.429211 1.17521 0.376751 1.15217 0.321568 1.15101C0.266487 1.15015 0.213289 1.17104 0.173515 1.20915C0.133741 1.24726 0.110601 1.29952 0.109114 1.35459L0.0189762 5.63491C0.0187699 5.63852 0.0186669 5.64212 0.0187701 5.64573L0 6.53484C0 6.85775 0.138301 7.17086 0.389429 7.41642C0.559907 7.58308 0.77236 7.70911 1.00792 7.7912L0.76576 16.0827C0.76576 16.5054 1.1587 16.8492 1.64177 16.8492C2.12484 16.8492 2.51778 16.5055 2.51767 16.0767ZM0.680572 7.11898C0.507722 6.94995 0.416346 6.74802 0.416243 6.53938L0.429857 5.89263C1.45912 6.05857 2.42094 5.97308 2.85512 5.91666L2.86729 6.48843C2.86729 7.02225 2.33668 7.4685 1.68447 7.48304C1.29215 7.49346 0.926028 7.35918 0.680572 7.11898ZM1.182 16.0889L1.42168 7.88526C1.49635 7.89372 1.57174 7.8996 1.64837 7.8996C1.71984 7.89968 1.79126 7.89562 1.86227 7.88743L2.10164 16.0829C2.10164 16.2728 1.89104 16.4333 1.64187 16.4333C1.3926 16.4332 1.18211 16.2727 1.182 16.0889ZM22.513 9.18215L22.2158 15.9089C22.2158 16.4656 22.591 16.8696 23.108 16.8696C23.65 16.8696 24.0002 16.4925 24 15.8997L23.7033 9.18679H23.779C23.8069 9.18677 23.8345 9.18113 23.8602 9.17023C23.8859 9.15933 23.9091 9.14337 23.9285 9.12331C23.9479 9.10326 23.9631 9.07951 23.9731 9.05347C23.9832 9.02744 23.9879 8.99965 23.987 8.97176C23.9867 8.96434 23.9619 8.22312 23.9619 8.02016L23.9617 1.60479C23.9735 1.30952 23.8307 1.20041 23.7445 1.16173C23.5193 1.06077 23.2581 1.22691 23.1394 1.34129C22.2913 2.15676 21.843 3.12394 21.843 4.13794V7.67074C21.843 7.71499 21.8386 7.82843 21.8335 7.96519C21.8084 8.63101 21.8106 8.74353 21.8317 8.80954C21.9251 9.1014 22.247 9.1672 22.513 9.18215ZM23.5841 15.9089C23.5841 16.1123 23.5222 16.4533 23.108 16.4533C22.7566 16.4533 22.6319 16.16 22.6317 15.9181L22.9294 9.18669H23.2867L23.5841 15.9089ZM22.2494 7.98076C22.2548 7.83679 22.2592 7.71726 22.2592 7.67064V4.13783C22.2592 3.23965 22.6634 2.37633 23.4279 1.64109C23.4651 1.60541 23.5106 1.57725 23.5461 1.56127C23.5464 1.57117 23.5463 1.58293 23.5458 1.59654V8.02016C23.5458 8.16052 23.5566 8.53128 23.5642 8.77065H22.7254C22.3526 8.77065 22.2547 8.72476 22.2326 8.69176C22.2265 8.58749 22.2413 8.19631 22.2494 7.98076ZM12.2747 17.2625C16.8307 17.2625 20.5372 13.556 20.5372 9.00002C20.5372 4.44403 16.8307 0.737549 12.2747 0.737549C7.71876 0.737549 4.01227 4.44403 4.01227 9.00002C4.01227 13.5559 7.71886 17.2625 12.2747 17.2625ZM12.2747 1.15379C16.6013 1.15379 20.1211 4.67361 20.1211 9.00012C20.1211 13.3265 16.6013 16.8464 12.2747 16.8464C7.94833 16.8464 4.42852 13.3265 4.42852 9.00012C4.42852 4.67361 7.94833 1.15379 12.2747 1.15379Z" fill="#202020"/>
<path d="M12.2526 15.5275C14.002 15.5275 15.6468 14.8462 16.8837 13.6092C18.1207 12.3721 18.802 10.7275 18.802 8.97805C18.802 7.22871 18.1207 5.58395 16.8837 4.34698C15.6468 3.1099 14.002 2.42871 12.2526 2.42871C10.5031 2.42871 8.85847 3.11001 7.62139 4.34698C6.38442 5.58405 5.70312 7.22871 5.70312 8.97805C5.70312 10.7275 6.38442 12.3721 7.62139 13.6092C8.85847 14.8462 10.5031 15.5275 12.2526 15.5275ZM7.91573 4.64122C9.07412 3.48283 10.6143 2.84485 12.2526 2.84485C13.8908 2.84485 15.431 3.48283 16.5894 4.64122C17.7478 5.79971 18.3858 7.33989 18.3858 8.97805C18.3858 10.6163 17.7478 12.1565 16.5894 13.315C15.431 14.4734 13.8907 15.1113 12.2525 15.1113C10.6142 15.1113 9.07402 14.4734 7.91563 13.315C6.75724 12.1565 6.11927 10.6163 6.11927 8.97805C6.11937 7.33989 6.75735 5.79971 7.91573 4.64122Z" fill="#202020"/>
<path d="M12.2734 10.216C12.7645 10.216 13.164 9.81646 13.164 9.32535C13.164 9.13579 13.104 8.96026 13.0027 8.81566L15.2729 6.25261C15.307 6.21097 15.3237 6.15773 15.3194 6.10406C15.3151 6.0504 15.2902 6.00047 15.2499 5.96476C15.2096 5.92906 15.1571 5.91035 15.1033 5.91256C15.0495 5.91477 14.9986 5.93773 14.9614 5.97663L12.6916 8.53937C12.6186 8.50037 12.5405 8.4718 12.4595 8.45449V3.66089H12.0434V8.46584C11.6636 8.56763 11.3828 8.91385 11.3828 9.32535C11.3827 9.81646 11.7822 10.216 12.2734 10.216ZM12.2734 8.85083C12.535 8.85083 12.7479 9.0637 12.7479 9.32535C12.7479 9.58699 12.535 9.79976 12.2734 9.79976C12.0117 9.79976 11.7988 9.58689 11.7988 9.32535C11.799 9.19955 11.8491 9.07895 11.938 8.99C12.027 8.90104 12.1476 8.851 12.2734 8.85083Z" fill="#202020"/>
</svg>
