<svg width="30" height="31" viewBox="0 0 30 31" fill="none" xmlns="http://www.w3.org/2000/svg">
<path fill-rule="evenodd" clip-rule="evenodd" d="M5.33301 0.833374C4.41967 0.833374 3.66634 1.58671 3.66634 2.50004V10.92L1.07501 12.6487C0.846877 12.801 0.659822 13.0073 0.530399 13.2491C0.400977 13.491 0.333179 13.7611 0.333008 14.0354V23.5C0.333008 23.6769 0.403246 23.8464 0.52827 23.9714C0.653294 24.0965 0.822863 24.1667 0.999674 24.1667C1.17649 24.1667 1.34605 24.0965 1.47108 23.9714C1.5961 23.8464 1.66634 23.6769 1.66634 23.5V14.4347L11.0437 19.466L1.66634 27.9647V27.5C1.66634 27.3232 1.5961 27.1537 1.47108 27.0286C1.34605 26.9036 1.17649 26.8334 0.999674 26.8334C0.822863 26.8334 0.653294 26.9036 0.52827 27.0286C0.403246 27.1537 0.333008 27.3232 0.333008 27.5V28.5C0.333008 29.4134 1.08634 30.1667 1.99967 30.1667H27.9997C28.913 30.1667 29.6663 29.4134 29.6663 28.5V14.0354C29.6663 13.478 29.3863 12.9567 28.9243 12.6487L26.333 10.92V2.50004C26.333 1.58671 25.5797 0.833374 24.6663 0.833374H5.33301ZM5.33301 2.16671H24.6663C24.8577 2.16671 24.9997 2.30871 24.9997 2.50004V14.7107L24.213 15.1327C24.0592 15.2174 23.945 15.3593 23.8952 15.5277C23.8454 15.6961 23.8641 15.8774 23.9471 16.0321C24.0302 16.1868 24.1709 16.3025 24.3388 16.354C24.5067 16.4056 24.6881 16.3888 24.8437 16.3074C26.0063 15.682 27.1697 15.0587 28.333 14.4347V27.9647L18.9557 19.4674L22.9817 17.3074C23.0589 17.266 23.1272 17.2098 23.1827 17.1419C23.2382 17.0741 23.2798 16.9961 23.3051 16.9122C23.3304 16.8283 23.339 16.7402 23.3303 16.6531C23.3215 16.5659 23.2958 16.4813 23.2543 16.404C23.2129 16.3268 23.1567 16.2585 23.0889 16.203C23.0211 16.1475 22.943 16.1059 22.8591 16.0806C22.7753 16.0553 22.6872 16.0468 22.6 16.0555C22.5128 16.0642 22.4282 16.09 22.351 16.1314L15.1577 19.992C15.1093 20.0184 15.0551 20.0321 15 20.0321C14.9449 20.0321 14.8907 20.0184 14.8423 19.992L4.99967 14.712V2.50004C4.99967 2.30871 5.14167 2.16671 5.33301 2.16671ZM3.66634 12.5247V13.996L2.44234 13.34L3.66634 12.5247ZM26.333 12.5247L27.557 13.34L26.333 13.996V12.5247ZM12.2903 20.1354L14.2117 21.1667C14.454 21.2967 14.7247 21.3648 14.9997 21.3648C15.2747 21.3648 15.5454 21.2967 15.7877 21.1667L17.709 20.1354L27.3063 28.8334H2.69367L12.2903 20.1354Z" fill="black"/>
<path d="M13.6663 3.5C12.2016 3.5 10.9996 4.702 10.9996 6.16667C10.9996 7.63133 12.2016 8.83333 13.6663 8.83333C15.1309 8.83333 16.3329 7.63133 16.3329 6.16667C16.3329 4.702 15.1309 3.5 13.6663 3.5ZM13.6663 4.83333C14.4103 4.83333 14.9996 5.42267 14.9996 6.16667C14.9996 6.91067 14.4103 7.5 13.6663 7.5C12.9223 7.5 12.3329 6.91067 12.3329 6.16667C12.3329 5.42267 12.9223 4.83333 13.6663 4.83333ZM13.6663 9.5C12.449 9.50096 11.2685 9.91786 10.3206 10.6816C9.37266 11.4454 8.71418 12.5101 8.45427 13.6993C8.34894 14.1833 8.48427 14.6393 8.71294 15.006C8.9416 15.3727 9.27294 15.676 9.71027 15.828C12.4216 16.7713 15.0789 16.6707 17.6103 15.818C18.0476 15.67 18.3836 15.3713 18.6156 15.0067C18.8469 14.642 18.9836 14.184 18.8783 13.6993C18.6184 12.5101 17.9599 11.4454 17.012 10.6816C16.064 9.91786 14.8836 9.50096 13.6663 9.5ZM13.6663 10.8333C14.5795 10.8325 15.4654 11.1445 16.1766 11.7174C16.8878 12.2903 17.3813 13.0895 17.5749 13.982C17.5869 14.0353 17.5709 14.1627 17.4889 14.292C17.4076 14.4207 17.2703 14.5247 17.1843 14.5533C14.8856 15.328 12.5809 15.4153 10.1496 14.5687C10.0649 14.54 9.92694 14.4333 9.84494 14.3007C9.76227 14.1687 9.7456 14.036 9.7576 13.982C9.95125 13.0895 10.4447 12.2903 11.1559 11.7174C11.8671 11.1445 12.753 10.8325 13.6663 10.8333ZM18.9996 6.83333C18.8228 6.83333 18.6532 6.90357 18.5282 7.0286C18.4032 7.15362 18.3329 7.32319 18.3329 7.5V8.16667H17.6663C17.4895 8.16667 17.3199 8.2369 17.1949 8.36193C17.0698 8.48695 16.9996 8.65652 16.9996 8.83333C16.9996 9.01014 17.0698 9.17971 17.1949 9.30474C17.3199 9.42976 17.4895 9.5 17.6663 9.5H18.3329V10.1667C18.3329 10.3435 18.4032 10.513 18.5282 10.6381C18.6532 10.7631 18.8228 10.8333 18.9996 10.8333C19.1764 10.8333 19.346 10.7631 19.471 10.6381C19.596 10.513 19.6663 10.3435 19.6663 10.1667V9.5H20.3329C20.5097 9.5 20.6793 9.42976 20.8043 9.30474C20.9294 9.17971 20.9996 9.01014 20.9996 8.83333C20.9996 8.65652 20.9294 8.48695 20.8043 8.36193C20.6793 8.2369 20.5097 8.16667 20.3329 8.16667H19.6663V7.5C19.6663 7.32319 19.596 7.15362 19.471 7.0286C19.346 6.90357 19.1764 6.83333 18.9996 6.83333Z" fill="black"/>
<path fill-rule="evenodd" clip-rule="evenodd" d="M1.66634 25.5C1.66634 25.6769 1.5961 25.8464 1.47108 25.9714C1.34605 26.0965 1.17649 26.1667 0.999674 26.1667C0.822863 26.1667 0.653294 26.0965 0.52827 25.9714C0.403246 25.8464 0.333008 25.6769 0.333008 25.5C0.333008 25.3232 0.403246 25.1537 0.52827 25.0286C0.653294 24.9036 0.822863 24.8334 0.999674 24.8334C1.17649 24.8334 1.34605 24.9036 1.47108 25.0286C1.5961 25.1537 1.66634 25.3232 1.66634 25.5Z" fill="black"/>
</svg>
