<svg width="32" height="32" viewBox="0 0 32 32" fill="none" xmlns="http://www.w3.org/2000/svg">
<path d="M10.6804 16.663C9.83423 15.7516 11.096 14.491 12.0065 15.3369L14.4377 17.768L19.963 12.2427C20.3292 11.8765 20.9229 11.8765 21.2891 12.2427C21.6553 12.6089 21.6553 13.2026 21.2891 13.5688L15.1007 19.7571C14.7345 20.1233 14.1408 20.1233 13.7746 19.7571L10.6804 16.663ZM11.6548 6.48422C12.1727 6.48422 12.5925 6.06438 12.5925 5.54653C12.5466 4.30403 10.7629 4.3044 10.7172 5.54653C10.7172 6.06438 11.137 6.48422 11.6548 6.48422ZM7.98404 8.93683C8.5019 8.93683 8.92173 8.517 8.92173 7.99915C8.87578 6.75665 7.09211 6.75702 7.04635 7.99915C7.04635 8.517 7.46619 8.93683 7.98404 8.93683ZM31.988 15.9999C32.0124 30.1756 14.6742 37.3571 4.66869 27.3157C-1.53881 21.359 -1.53987 10.6407 4.66894 4.68392C14.6753 -5.35704 32.0133 1.82478 31.988 15.9999ZM30.1126 15.9999C30.1126 8.20975 23.7749 1.87204 15.9848 1.87204C-2.73199 2.58231 -2.72686 29.4203 15.985 30.1277C23.7749 30.1277 30.1126 23.79 30.1126 15.9999ZM15.9848 3.74741C14.7407 3.79336 14.7455 5.57941 15.9848 5.62279C21.7067 5.62279 26.3619 10.2779 26.3619 15.9999C25.8402 29.7473 6.12748 29.7441 5.60769 15.9998C5.60769 15.482 5.18785 15.0622 4.67 15.0622C4.15215 15.0622 3.73231 15.482 3.73231 15.9999C3.73231 22.7559 9.22873 28.2523 15.9848 28.2523C32.2167 27.6364 32.2129 4.3611 15.9848 3.74741ZM5.5313 12.6076C6.04915 12.6076 6.46899 12.1877 6.46899 11.6699C6.42304 10.4274 4.63937 10.4278 4.59361 11.6699C4.59361 12.1877 5.01344 12.6076 5.5313 12.6076Z" fill="black"/>
</svg>
