<svg width="32" height="32" viewBox="0 0 32 32" fill="none" xmlns="http://www.w3.org/2000/svg">
<path d="M15.9997 29.6666C13.2967 29.6666 10.6544 28.8651 8.40689 27.3633C6.15942 25.8616 4.40772 23.7272 3.37333 21.2299C2.33893 18.7327 2.06828 15.9848 2.59562 13.3337C3.12295 10.6826 4.42457 8.24745 6.33589 6.33613C8.24721 4.42481 10.6824 3.12319 13.3334 2.59586C15.9845 2.06853 18.7324 2.33917 21.2297 3.37357C23.7269 4.40797 25.8614 6.15966 27.3631 8.40713C28.8648 10.6546 29.6663 13.2969 29.6663 15.9999C29.6628 19.6235 28.2218 23.0976 25.6596 25.6598C23.0973 28.2221 19.6232 29.6631 15.9997 29.6666ZM15.9997 4.33326C13.6922 4.33326 11.4366 5.0175 9.51803 6.29945C7.59945 7.5814 6.10411 9.40348 5.22109 11.5353C4.33806 13.6671 4.10702 16.0129 4.55719 18.276C5.00735 20.5391 6.11849 22.6179 7.7501 24.2495C9.38171 25.8811 11.4605 26.9923 13.7236 27.4424C15.9867 27.8926 18.3325 27.6615 20.4643 26.7785C22.5961 25.8955 24.4182 24.4002 25.7002 22.4816C26.9821 20.563 27.6663 18.3074 27.6663 15.9999C27.6628 12.9068 26.4325 9.9414 24.2454 7.75424C22.0582 5.56708 19.0928 4.33679 15.9997 4.33326Z" fill="black"/>
<path d="M21.3335 21C21.091 21.0036 20.8567 20.9127 20.6801 20.7466L15.3468 16.08C15.2365 15.9896 15.1481 15.8756 15.088 15.7463C15.028 15.617 14.998 15.4758 15.0001 15.3333V7.99995C15.0001 7.73474 15.1055 7.48038 15.293 7.29285C15.4806 7.10531 15.7349 6.99995 16.0001 6.99995C16.2653 6.99995 16.5197 7.10531 16.7072 7.29285C16.8948 7.48038 17.0001 7.73474 17.0001 7.99995V14.88L21.9868 19.2533C22.1374 19.3874 22.2439 19.564 22.2924 19.7598C22.3408 19.9556 22.329 20.1614 22.2583 20.3504C22.1876 20.5393 22.0615 20.7024 21.8964 20.8183C21.7314 20.9343 21.5351 20.9976 21.3335 21ZM3.33346 6.50662C3.12415 6.50214 2.92136 6.43294 2.75297 6.30853C2.58458 6.18412 2.45886 6.0106 2.39309 5.81184C2.32733 5.61307 2.32474 5.39882 2.38569 5.19852C2.44663 4.99823 2.56813 4.82173 2.73346 4.69329L6.73346 1.69329C6.9474 1.52532 7.21931 1.44921 7.48936 1.48172C7.62308 1.49781 7.75231 1.54009 7.86969 1.60613C7.98707 1.67217 8.09029 1.76069 8.17346 1.86662C8.25663 1.97255 8.31812 2.09383 8.35442 2.22353C8.39072 2.35322 8.40112 2.4888 8.38503 2.62252C8.36893 2.75623 8.32666 2.88547 8.26062 3.00285C8.19457 3.12023 8.10606 3.22345 8.00013 3.30662L4.00013 6.30662C3.80958 6.45206 3.5726 6.52315 3.33346 6.50662ZM28.6668 6.50662C28.4503 6.5076 28.2394 6.43732 28.0668 6.30662L24.0668 3.30662C23.8529 3.13865 23.7144 2.89257 23.6819 2.62252C23.6494 2.35247 23.7255 2.08056 23.8935 1.86662C24.0614 1.65268 24.3075 1.51423 24.5776 1.48172C24.8476 1.44921 25.1195 1.52532 25.3335 1.69329L29.3335 4.69329C29.4988 4.82173 29.6203 4.99823 29.6812 5.19852C29.7422 5.39882 29.7396 5.61307 29.6738 5.81184C29.6081 6.0106 29.4823 6.18412 29.314 6.30853C29.1456 6.43294 28.9428 6.50214 28.7335 6.50662H28.6668ZM26.6668 30.3333C26.5036 30.333 26.3429 30.2927 26.1988 30.216C26.0547 30.1393 25.9315 30.0285 25.8401 29.8933L23.3735 26.2C23.2911 26.0918 23.2317 25.9679 23.1989 25.836C23.1661 25.7041 23.1605 25.5668 23.1825 25.4327C23.2045 25.2985 23.2536 25.1702 23.3268 25.0557C23.4001 24.9412 23.4959 24.8428 23.6084 24.7665C23.721 24.6903 23.8479 24.6378 23.9815 24.6122C24.115 24.5867 24.2523 24.5887 24.3851 24.618C24.5178 24.6473 24.6432 24.7034 24.7535 24.7829C24.8639 24.8623 24.9569 24.9634 25.0268 25.08L27.4935 28.7733C27.6253 28.9882 27.6711 29.245 27.6216 29.4922C27.5722 29.7395 27.4311 29.9589 27.2268 30.1066C27.0684 30.2389 26.8726 30.3181 26.6668 30.3333ZM5.33346 30.3333C5.13354 30.3336 4.93826 30.2731 4.77346 30.16C4.56911 30.0123 4.42809 29.7928 4.37864 29.5456C4.32919 29.2983 4.37496 29.0415 4.50679 28.8266L6.97346 25.1333C7.04341 25.0167 7.13639 24.9156 7.24672 24.8362C7.35706 24.7568 7.48243 24.7007 7.61518 24.6713C7.74793 24.642 7.88527 24.64 8.0188 24.6656C8.15233 24.6911 8.27925 24.7436 8.39181 24.8199C8.50436 24.8961 8.60019 24.9945 8.67343 25.109C8.74668 25.2236 8.79579 25.3518 8.81779 25.486C8.83978 25.6202 8.83419 25.7574 8.80135 25.8893C8.76851 26.0212 8.70911 26.1451 8.62679 26.2533L6.16013 29.8933C6.06871 30.0285 5.94558 30.1393 5.80148 30.216C5.65738 30.2927 5.4967 30.333 5.33346 30.3333Z" fill="black"/>
<path d="M15.9997 29.6666C13.2967 29.6666 10.6544 28.8651 8.40689 27.3633C6.15942 25.8616 4.40772 23.7272 3.37333 21.2299C2.33893 18.7327 2.06828 15.9848 2.59562 13.3337C3.12295 10.6826 4.42457 8.24745 6.33589 6.33613C8.24721 4.42481 10.6824 3.12319 13.3334 2.59586C15.9845 2.06853 18.7324 2.33917 21.2297 3.37357C23.7269 4.40797 25.8614 6.15966 27.3631 8.40713C28.8648 10.6546 29.6663 13.2969 29.6663 15.9999C29.6628 19.6235 28.2218 23.0976 25.6596 25.6598C23.0973 28.2221 19.6232 29.6631 15.9997 29.6666ZM15.9997 4.33326C13.6922 4.33326 11.4366 5.0175 9.51803 6.29945C7.59945 7.5814 6.10411 9.40348 5.22109 11.5353C4.33806 13.6671 4.10702 16.0129 4.55719 18.276C5.00735 20.5391 6.11849 22.6179 7.7501 24.2495C9.38171 25.8811 11.4605 26.9923 13.7236 27.4424C15.9867 27.8926 18.3325 27.6615 20.4643 26.7785C22.5961 25.8955 24.4182 24.4002 25.7002 22.4816C26.9821 20.563 27.6663 18.3074 27.6663 15.9999C27.6628 12.9068 26.4325 9.9414 24.2454 7.75424C22.0582 5.56708 19.0928 4.33679 15.9997 4.33326Z" fill="black"/>
<path d="M21.3335 21C21.091 21.0036 20.8567 20.9127 20.6801 20.7466L15.3468 16.08C15.2365 15.9896 15.1481 15.8756 15.088 15.7463C15.028 15.617 14.998 15.4758 15.0001 15.3333V7.99995C15.0001 7.73474 15.1055 7.48038 15.293 7.29285C15.4806 7.10531 15.7349 6.99995 16.0001 6.99995C16.2653 6.99995 16.5197 7.10531 16.7072 7.29285C16.8948 7.48038 17.0001 7.73474 17.0001 7.99995V14.88L21.9868 19.2533C22.1374 19.3874 22.2439 19.564 22.2924 19.7598C22.3408 19.9556 22.329 20.1614 22.2583 20.3504C22.1876 20.5393 22.0615 20.7024 21.8964 20.8183C21.7314 20.9343 21.5351 20.9976 21.3335 21ZM3.33346 6.50662C3.12415 6.50214 2.92136 6.43294 2.75297 6.30853C2.58458 6.18412 2.45886 6.0106 2.39309 5.81184C2.32733 5.61307 2.32474 5.39882 2.38569 5.19852C2.44663 4.99823 2.56813 4.82173 2.73346 4.69329L6.73346 1.69329C6.9474 1.52532 7.21931 1.44921 7.48936 1.48172C7.62308 1.49781 7.75231 1.54009 7.86969 1.60613C7.98707 1.67217 8.09029 1.76069 8.17346 1.86662C8.25663 1.97255 8.31812 2.09383 8.35442 2.22353C8.39072 2.35322 8.40112 2.4888 8.38503 2.62252C8.36893 2.75623 8.32666 2.88547 8.26062 3.00285C8.19457 3.12023 8.10606 3.22345 8.00013 3.30662L4.00013 6.30662C3.80958 6.45206 3.5726 6.52315 3.33346 6.50662ZM28.6668 6.50662C28.4503 6.5076 28.2394 6.43732 28.0668 6.30662L24.0668 3.30662C23.8529 3.13865 23.7144 2.89257 23.6819 2.62252C23.6494 2.35247 23.7255 2.08056 23.8935 1.86662C24.0614 1.65268 24.3075 1.51423 24.5776 1.48172C24.8476 1.44921 25.1195 1.52532 25.3335 1.69329L29.3335 4.69329C29.4988 4.82173 29.6203 4.99823 29.6812 5.19852C29.7422 5.39882 29.7396 5.61307 29.6738 5.81184C29.6081 6.0106 29.4823 6.18412 29.314 6.30853C29.1456 6.43294 28.9428 6.50214 28.7335 6.50662H28.6668ZM26.6668 30.3333C26.5036 30.333 26.3429 30.2927 26.1988 30.216C26.0547 30.1393 25.9315 30.0285 25.8401 29.8933L23.3735 26.2C23.2911 26.0918 23.2317 25.9679 23.1989 25.836C23.1661 25.7041 23.1605 25.5668 23.1825 25.4327C23.2045 25.2985 23.2536 25.1702 23.3268 25.0557C23.4001 24.9412 23.4959 24.8428 23.6084 24.7665C23.721 24.6903 23.8479 24.6378 23.9815 24.6122C24.115 24.5867 24.2523 24.5887 24.3851 24.618C24.5178 24.6473 24.6432 24.7034 24.7535 24.7829C24.8639 24.8623 24.9569 24.9634 25.0268 25.08L27.4935 28.7733C27.6253 28.9882 27.6711 29.245 27.6216 29.4922C27.5722 29.7395 27.4311 29.9589 27.2268 30.1066C27.0684 30.2389 26.8726 30.3181 26.6668 30.3333ZM5.33346 30.3333C5.13354 30.3336 4.93826 30.2731 4.77346 30.16C4.56911 30.0123 4.42809 29.7928 4.37864 29.5456C4.32919 29.2983 4.37496 29.0415 4.50679 28.8266L6.97346 25.1333C7.04341 25.0167 7.13639 24.9156 7.24672 24.8362C7.35706 24.7568 7.48243 24.7007 7.61518 24.6713C7.74793 24.642 7.88527 24.64 8.0188 24.6656C8.15233 24.6911 8.27925 24.7436 8.39181 24.8199C8.50436 24.8961 8.60019 24.9945 8.67343 25.109C8.74668 25.2236 8.79579 25.3518 8.81779 25.486C8.83978 25.6202 8.83419 25.7574 8.80135 25.8893C8.76851 26.0212 8.70911 26.1451 8.62679 26.2533L6.16013 29.8933C6.06871 30.0285 5.94558 30.1393 5.80148 30.216C5.65738 30.2927 5.4967 30.333 5.33346 30.3333Z" fill="black"/>
</svg>
