<svg width="32" height="32" viewBox="0 0 32 32" fill="none" xmlns="http://www.w3.org/2000/svg">
<path d="M16.0004 9.88999C16.8937 9.88993 17.776 10.086 18.5851 10.4645C19.3943 10.8429 20.1104 11.3944 20.6829 12.08L21.5004 11.5C20.4828 10.2576 19.0746 9.39624 17.5051 9.056C15.9356 8.71575 14.2972 8.91669 12.8564 9.6261C11.4156 10.3355 10.2573 11.5116 9.57003 12.9631C8.88272 14.4145 8.70686 16.0559 9.07105 17.62C9.43525 19.1841 10.3181 20.5789 11.5758 21.5775C12.8336 22.576 14.3923 23.1195 15.9982 23.1195C17.6042 23.1195 19.1629 22.576 20.4207 21.5775C21.6784 20.5789 22.5613 19.1841 22.9254 17.62L21.5254 18.62C21.0567 19.6075 20.3316 20.4512 19.4257 21.0631C18.5199 21.675 17.4665 22.0327 16.3753 22.0988C15.2842 22.1649 14.1953 21.9371 13.2222 21.4391C12.2491 20.9411 11.4274 20.1912 10.8428 19.2675C10.2582 18.3438 9.93212 17.2801 9.89857 16.1875C9.86502 15.0949 10.1252 14.0133 10.652 13.0554C11.1788 12.0976 11.953 11.2987 12.8937 10.7419C13.8344 10.1851 14.9073 9.89093 16.0004 9.88999Z" fill="black"/>
<path d="M30.42 13.3325H28.975L27.5625 14.3325H30.42C30.735 14.3325 31 14.69 31 15.1125V16.89C31 17.3125 30.735 17.6675 30.42 17.6675H27.35L27.1775 18.455C26.8895 19.7752 26.368 21.0333 25.6375 22.17L25.2025 22.8475L25.7725 23.4175L27.375 25.02C27.4231 25.0721 27.4595 25.1338 27.4819 25.201C27.5043 25.2683 27.5122 25.3395 27.505 25.41C27.4865 25.6263 27.3906 25.8287 27.235 25.98L25.985 27.23C25.8252 27.3973 25.6062 27.4951 25.375 27.5025C25.2447 27.506 25.1182 27.4584 25.0225 27.37L23.42 25.7675L22.85 25.1975L22.1725 25.6325C21.0357 26.3629 19.7776 26.8844 18.4575 27.1725L17.67 27.345V30.415C17.67 30.73 17.3125 30.995 16.8925 30.995H15.1125C14.69 30.995 14.335 30.73 14.335 30.415V27.35L13.5475 27.1775C12.2273 26.8895 10.9692 26.368 9.8325 25.6375L9.155 25.2025L8.585 25.7725L6.9825 27.375C6.88738 27.4628 6.76192 27.5103 6.6325 27.5075C6.40131 27.5001 6.18226 27.4023 6.0225 27.235L4.7725 25.985C4.61487 25.8328 4.51801 25.6284 4.5 25.41C4.49275 25.3389 4.50083 25.2671 4.52369 25.1994C4.54655 25.1317 4.58365 25.0697 4.6325 25.0175L6.235 23.415L6.805 22.845L6.37 22.1675C5.63958 21.0307 5.11806 19.7726 4.83 18.4525L4.6575 17.665H1.58C1.265 17.6675 1 17.31 1 16.89V15.1125C1 14.69 1.265 14.3325 1.58 14.3325H4.65L4.8225 13.545C5.1104 12.2248 5.63194 10.9667 6.3625 9.83L6.7975 9.1525L6.2275 8.5825L4.625 6.9825C4.53719 6.88738 4.48969 6.76192 4.4925 6.6325C4.49961 6.40125 4.59751 6.18211 4.765 6.0225L6.015 4.7725C6.17599 4.60404 6.39706 4.50608 6.63 4.5C6.76028 4.49654 6.88676 4.54408 6.9825 4.6325L8.585 6.235L9.155 6.805L9.8325 6.37C10.9691 5.63929 12.2273 5.11775 13.5475 4.83L14.335 4.6575V1.58C14.3325 1.265 14.69 1 15.1125 1H16.89C17.3125 1 17.6675 1.265 17.6675 1.58V4.6525L18.455 4.825C19.7752 5.1128 21.0334 5.63434 22.17 6.365L22.8475 6.8L23.4175 6.23L25.0225 4.6275C25.1176 4.53969 25.2431 4.49219 25.3725 4.495C25.6037 4.50238 25.8227 4.60024 25.9825 4.7675L27.2325 6.0175C27.3879 6.16973 27.483 6.37311 27.5 6.59C27.5076 6.66091 27.4999 6.73262 27.4775 6.80032C27.455 6.86801 27.4184 6.93013 27.37 6.9825L26.12 8.2325L28.5 6.545C28.4709 6.07959 28.2705 5.64144 27.9375 5.315L26.6875 4.065C26.3402 3.71005 25.8666 3.50693 25.37 3.5C25.1744 3.49716 24.9801 3.53327 24.7985 3.60624C24.617 3.6792 24.4518 3.78756 24.3125 3.925L22.71 5.5275C21.4736 4.73341 20.1055 4.1662 18.67 3.8525V1.58C18.6675 0.7075 17.87 0 16.8875 0H15.1125C14.13 0 13.335 0.7075 13.335 1.58V3.845C11.8986 4.15841 10.5296 4.72564 9.2925 5.52L7.69 3.9175C7.54974 3.78122 7.38382 3.67414 7.20186 3.60248C7.0199 3.53081 6.82552 3.49598 6.63 3.5C6.13345 3.50693 5.65981 3.71005 5.3125 4.065L4.0625 5.315C3.3675 6.01 3.3125 7.065 3.9225 7.69L5.525 9.2925C4.73088 10.5298 4.16367 11.8987 3.85 13.335H1.58C0.7075 13.3325 0 14.13 0 15.1125V16.89C0 17.8725 0.7075 18.6675 1.58 18.6675H3.845C4.15882 20.1038 4.72602 21.4727 5.52 22.71L3.9175 24.3125C3.3 24.93 3.3625 25.9925 4.0575 26.6875L5.3075 27.9375C5.65644 28.2927 6.13207 28.495 6.63 28.5C6.82563 28.5027 7.01984 28.4665 7.20138 28.3936C7.38291 28.3206 7.54815 28.2123 7.6875 28.075L9.29 26.4725C10.5273 27.2666 11.8962 27.8338 13.3325 28.1475V30.4125C13.3325 31.285 14.1275 31.9925 15.11 31.9925H16.8875C17.87 31.9925 18.665 31.285 18.665 30.4125V28.1475C20.1004 27.8335 21.4685 27.2663 22.705 26.4725L24.3075 28.075C24.4469 28.2123 24.6121 28.3206 24.7936 28.3936C24.9752 28.4665 25.1694 28.5027 25.365 28.5C25.8607 28.4924 26.3333 28.2893 26.68 27.935L27.93 26.685C28.625 25.99 28.68 24.935 28.07 24.31L26.4675 22.7075C27.2615 21.4702 27.8287 20.1013 28.1425 18.665H30.4075C31.28 18.665 31.9875 17.87 31.9875 16.8875V15.1125C32 14.13 31.2925 13.3325 30.42 13.3325Z" fill="black"/>
<path d="M17.3427 15.6575L17.2852 15.57L15.3252 12.92C15.2004 12.7436 15.0352 12.5996 14.8434 12.5C14.6517 12.4004 14.4388 12.3481 14.2227 12.3475C13.9387 12.3444 13.6611 12.432 13.4302 12.5975L12.5602 13.25C12.271 13.4644 12.0769 13.7831 12.019 14.1384C11.9611 14.4936 12.044 14.8575 12.2502 15.1525C12.2827 15.1875 14.7152 18.5 15.7752 20C15.885 20.1562 16.0312 20.2833 16.201 20.3704C16.3709 20.4575 16.5593 20.502 16.7502 20.5C17.0079 20.4975 17.2585 20.4155 17.4677 20.265C20.1952 18.3375 31.4452 10.365 31.4527 10.36C31.7406 10.1438 31.9328 9.82373 31.9884 9.46796C32.0439 9.11219 31.9585 8.74878 31.7502 8.45504L31.1252 7.57254C31.0003 7.39562 30.8348 7.25127 30.6425 7.15165C30.4502 7.05202 30.2368 7.00003 30.0202 7.00004C29.7379 6.99783 29.4621 7.08537 29.2327 7.25004L17.6502 15.4525C17.552 15.5271 17.4493 15.5955 17.3427 15.6575ZM29.8177 8.06754C29.8557 8.03936 29.8989 8.0191 29.9449 8.00798C29.9908 7.99685 30.0386 7.99509 30.0852 8.00278C30.1319 8.01048 30.1765 8.02749 30.2164 8.05278C30.2564 8.07808 30.2908 8.11116 30.3177 8.15004L30.9427 9.03254C30.9994 9.1118 31.0233 9.20992 31.0093 9.30638C30.9954 9.40283 30.9446 9.49015 30.8677 9.55004C30.8677 9.55004 19.6177 17.5225 16.8902 19.45C16.8497 19.4805 16.8009 19.498 16.7502 19.5C16.7219 19.4997 16.694 19.4927 16.6689 19.4797C16.6437 19.4666 16.6219 19.4479 16.6052 19.425C15.5377 17.91 13.1052 14.5925 13.0802 14.5675C13.0235 14.4872 13.0004 14.3879 13.0159 14.2908C13.0313 14.1937 13.084 14.1064 13.1627 14.0475L14.0302 13.4125C14.0888 13.369 14.1598 13.3454 14.2327 13.345C14.2908 13.3457 14.3479 13.3607 14.3989 13.3886C14.4499 13.4165 14.4933 13.4565 14.5252 13.505L16.4577 16.12C16.5676 16.3018 16.7051 16.4655 16.8652 16.605C16.9739 16.6847 17.1055 16.7268 17.2402 16.725C17.5702 16.725 17.9902 16.4625 18.2527 16.2525L29.8177 8.06754Z" fill="black"/>
</svg>
