<svg width="20" height="20" viewBox="0 0 20 20" fill="none" xmlns="http://www.w3.org/2000/svg">
<path d="M6.90455 11.2524C7.09335 10.8756 7.19961 10.4502 7.19961 9.99998C7.19961 9.54976 7.09335 9.12437 6.90455 8.7475M6.90455 11.2524C6.44486 12.1701 5.4958 12.8 4.39961 12.8C2.85321 12.8 1.59961 11.5464 1.59961 9.99998C1.59961 8.45358 2.85321 7.19998 4.39961 7.19998C5.4958 7.19998 6.44486 7.8299 6.90455 8.7475M6.90455 11.2524L13.0947 14.3475M6.90455 8.7475L13.0947 5.65245M13.0947 5.65245C13.5544 6.57005 14.5034 7.19998 15.5996 7.19998C17.146 7.19998 18.3996 5.94637 18.3996 4.39998C18.3996 2.85358 17.146 1.59998 15.5996 1.59998C14.0532 1.59998 12.7996 2.85358 12.7996 4.39998C12.7996 4.85019 12.9059 5.27558 13.0947 5.65245ZM13.0947 14.3475C12.9059 14.7244 12.7996 15.1498 12.7996 15.6C12.7996 17.1464 14.0532 18.4 15.5996 18.4C17.146 18.4 18.3996 17.1464 18.3996 15.6C18.3996 14.0536 17.146 12.8 15.5996 12.8C14.5034 12.8 13.5544 13.4299 13.0947 14.3475Z" stroke="#333333" stroke-width="1.67" stroke-linecap="round" stroke-linejoin="round"/>
</svg>
