<svg width="20" height="21" viewBox="0 0 20 21" fill="none" xmlns="http://www.w3.org/2000/svg">
<path d="M17.9336 2.50895H11.9121C11.7896 1.55348 10.9718 0.8125 9.98355 0.8125C8.99535 0.8125 8.17746 1.55348 8.05496 2.50895H2.06645C1.09934 2.50895 0.3125 3.29574 0.3125 4.26285V14.1791C0.3125 15.1463 1.09934 15.9331 2.06645 15.9331H6.74109V17.5982H4.85953C4.00941 17.5982 3.31781 18.1789 3.31781 18.8928V19.875C3.31781 19.9579 3.35074 20.0374 3.40934 20.096C3.46795 20.1546 3.54743 20.1875 3.63031 20.1875H16.3697C16.4526 20.1875 16.5321 20.1546 16.5907 20.096C16.6493 20.0374 16.6822 19.9579 16.6822 19.875V18.8928C16.6822 18.179 15.9906 17.5982 15.1405 17.5982H13.2589V15.9331H17.9336C18.9007 15.9331 19.6875 15.1462 19.6875 14.1791V4.26285C19.6875 3.29574 18.9007 2.50895 17.9336 2.50895ZM10.3125 7.18461C10.7899 6.45824 11.8712 5.74574 13.3194 5.6548V9.1748C12.0623 9.20227 11.0704 9.39852 10.3125 9.77082V7.18461ZM9.99562 6.5673C9.61063 6.12781 8.98258 5.64914 8.16234 5.3423C8.67578 4.9318 9.31711 4.70258 9.98355 4.70258C10.6494 4.70258 11.2903 4.93145 11.8035 5.34133C11.022 5.63055 10.4016 6.08328 9.99562 6.5673ZM9.6875 7.18578V9.77078C8.92957 9.39844 7.93789 9.20223 6.68062 9.1748V5.6557C8.19828 5.75961 9.29152 6.60117 9.6875 7.18578ZM8.64891 4.3393C8.20213 4.52105 7.79714 4.79207 7.45875 5.13578C7.10035 5.05858 6.73474 5.01979 6.36812 5.02008C6.28524 5.02008 6.20576 5.053 6.14715 5.11161C6.08855 5.17021 6.05562 5.2497 6.05562 5.33258V9.48394C6.05562 9.56683 6.08855 9.64631 6.14715 9.70492C6.20576 9.76352 6.28524 9.79644 6.36812 9.79644C7.94496 9.79644 9.07441 10.05 9.82102 10.5717C9.87349 10.6084 9.93597 10.628 9.99999 10.628C10.064 10.628 10.1265 10.6083 10.1789 10.5716L10.179 10.5717C10.9257 10.0501 12.0551 9.79644 13.632 9.79644C13.7148 9.79644 13.7943 9.76352 13.8529 9.70492C13.9115 9.64631 13.9445 9.56683 13.9445 9.48394V5.33258C13.9445 5.2497 13.9115 5.17021 13.8529 5.11161C13.7943 5.053 13.7148 5.02008 13.632 5.02008C13.2362 5.02008 12.8611 5.06238 12.5097 5.13719C12.171 4.79283 11.7656 4.52132 11.3182 4.33934H17.8572V12.8801H2.14285V4.3393H8.64891ZM9.98355 1.4375C10.7114 1.4375 11.3036 2.02965 11.3036 2.75754C11.3036 3.48543 10.7114 4.07758 9.98355 4.07758C9.25566 4.07758 8.66352 3.48543 8.66352 2.75754C8.66352 2.02965 9.25566 1.4375 9.98355 1.4375ZM16.0572 18.8928V19.5625H3.94281V18.8928C3.94281 18.5298 4.36262 18.2232 4.85953 18.2232H15.1405C15.6374 18.2232 16.0572 18.5298 16.0572 18.8928ZM12.6339 17.5982H7.36609V15.9331H12.6339V17.5982ZM19.0625 14.1792C19.0625 14.8017 18.5561 15.3081 17.9336 15.3081H2.06645C1.44395 15.3081 0.9375 14.8017 0.9375 14.1792V4.26285C0.9375 3.64035 1.44395 3.13395 2.06645 3.13395H8.07539C8.11561 3.33774 8.18845 3.53371 8.29109 3.7143H2.03027C1.74773 3.7143 1.51785 3.94418 1.51785 4.22668V13.1925C1.51785 13.2754 1.55078 13.3549 1.60938 13.4135C1.66799 13.4721 1.74747 13.505 1.83035 13.505H18.1696C18.2525 13.505 18.332 13.4721 18.3906 13.4135C18.4492 13.3549 18.4821 13.2754 18.4821 13.1925V4.22668C18.4821 3.94418 18.2523 3.7143 17.9697 3.7143H11.676C11.7786 3.53371 11.8515 3.33774 11.8917 3.13395H17.9336C18.5561 3.13395 19.0625 3.64039 19.0625 4.26285V14.1792ZM8.07082 11.3842C8.07082 11.3013 8.10374 11.2218 8.16235 11.1632C8.22095 11.1046 8.30044 11.0717 8.38332 11.0717H15.9798C16.0626 11.0717 16.1421 11.1046 16.2007 11.1632C16.2593 11.2218 16.2923 11.3013 16.2923 11.3842C16.2923 11.4671 16.2593 11.5465 16.2007 11.6052C16.1421 11.6638 16.0626 11.6967 15.9798 11.6967H8.38332C8.30044 11.6967 8.22095 11.6638 8.16235 11.6052C8.10374 11.5465 8.07082 11.4671 8.07082 11.3842ZM3.86398 12.4959C3.91148 12.5234 3.96537 12.5379 4.02023 12.5379C4.0751 12.5379 4.12899 12.5234 4.17648 12.4959L5.6334 11.6548C5.68091 11.6274 5.72037 11.5879 5.7478 11.5404C5.77523 11.4929 5.78967 11.439 5.78967 11.3842C5.78967 11.3293 5.77523 11.2754 5.7478 11.2279C5.72037 11.1804 5.68091 11.141 5.6334 11.1136L4.17648 10.2724C4.12898 10.2449 4.07509 10.2305 4.02023 10.2305C3.96537 10.2305 3.91148 10.2449 3.86397 10.2723C3.81646 10.2998 3.77701 10.3392 3.74958 10.3867C3.72216 10.4343 3.70772 10.4881 3.70773 10.543V12.2253C3.70774 12.2802 3.72218 12.3341 3.7496 12.3816C3.77703 12.4291 3.81648 12.4685 3.86398 12.4959ZM4.33273 11.0843L4.85219 11.3842L4.33273 11.6841V11.0843ZM5.98211 11.9972V10.7711C5.98211 10.6882 6.01503 10.6087 6.07364 10.5501C6.13224 10.4915 6.21173 10.4586 6.29461 10.4586C6.37749 10.4586 6.45698 10.4915 6.51558 10.5501C6.57419 10.6087 6.60711 10.6882 6.60711 10.7711V11.9972C6.60711 12.0801 6.57419 12.1596 6.51558 12.2182C6.45698 12.2768 6.37749 12.3097 6.29461 12.3097C6.21173 12.3097 6.13224 12.2768 6.07364 12.2182C6.01503 12.1596 5.98211 12.0801 5.98211 11.9972ZM7.15402 11.9972V10.7711C7.15402 10.6882 7.18695 10.6087 7.24555 10.5501C7.30416 10.4915 7.38364 10.4586 7.46652 10.4586C7.5494 10.4586 7.62889 10.4915 7.68749 10.5501C7.7461 10.6087 7.77902 10.6882 7.77902 10.7711V11.9972C7.77902 12.0801 7.7461 12.1596 7.68749 12.2182C7.62889 12.2768 7.5494 12.3097 7.46652 12.3097C7.38364 12.3097 7.30416 12.2768 7.24555 12.2182C7.18695 12.1596 7.15402 12.0801 7.15402 11.9972Z" fill="#505050"/>
</svg>
