<svg width="48" height="48" viewBox="0 0 48 48" fill="none" xmlns="http://www.w3.org/2000/svg">
<g clip-path="url(#clip0_1284_7785)">
<path d="M24.0072 5.50294e-06C23.8768 5.50294e-06 23.7492 0.0283525 23.6358 0.0935507L3.3847 11.3955C3.2643 11.463 3.16483 11.5624 3.09723 11.6828C3.02962 11.8032 2.99649 11.9398 3.00147 12.0778C3.00644 12.2157 3.04934 12.3497 3.12545 12.4648C3.20156 12.58 3.30793 12.672 3.43289 12.7307L8.25188 14.9842V17.252H7.50352C7.30478 17.2512 7.11384 17.3293 6.97251 17.469C6.83118 17.6087 6.75099 17.7988 6.74949 17.9975V24.747C6.74949 25.1637 7.08682 25.501 7.50352 25.501H10.5055C10.9193 25.501 11.251 25.1608 11.251 24.747V18.0004C11.251 17.8024 11.1725 17.6125 11.0328 17.4722C10.8931 17.3319 10.7035 17.2528 10.5055 17.252H9.75144V15.6929L15.35 18.3093C15.5597 18.8366 15.8829 19.3894 16.3336 19.8968V20.1037C14.9049 20.2568 13.8136 21.5239 13.8136 23.0405C13.8136 24.6307 15.0098 25.9744 16.6114 25.9886C16.6766 25.9886 16.7248 25.9886 16.7872 25.9829C17.3144 27.4286 18.2754 28.6787 19.5 29.5688V31.1959L19.2789 30.9748C19.2083 30.904 19.1244 30.8479 19.0319 30.8099C18.9394 30.772 18.8403 30.7528 18.7403 30.7537C18.5452 30.7572 18.3592 30.8365 18.2215 30.9748L16.1409 33.0526C12.4586 33.3673 8.64874 35.7824 6.89973 40.0203C6.77784 40.3605 6.00396 42.0358 6.00396 44.5984V47.2517C6.00396 47.6655 6.33562 48.0028 6.74949 48.0028H41.2506C41.6645 48.0028 41.999 47.6627 41.999 47.2517V44.5984C41.999 42.529 41.4888 40.9473 41.0664 39.9495C39.4081 35.9497 35.689 33.3871 31.8593 33.0498L29.7814 30.9748C29.7119 30.9046 29.6291 30.8489 29.5378 30.8109C29.4466 30.7728 29.3488 30.7533 29.2499 30.7533C29.1511 30.7533 29.0532 30.7728 28.962 30.8109C28.8708 30.8489 28.788 30.9046 28.7184 30.9748L28.503 31.1902V29.5659C29.7247 28.6787 30.6857 27.4257 31.213 25.9829C31.2753 25.9886 31.3264 25.9914 31.3916 25.9914C32.9563 25.9914 34.1894 24.6364 34.1894 23.0405C34.1894 21.5466 33.1236 20.2625 31.6665 20.1094L31.6722 19.8854C32.0946 19.4234 32.4376 18.8366 32.6502 18.3122L44.5672 12.7335C44.6916 12.6748 44.7975 12.5831 44.8734 12.4684C44.9493 12.3536 44.9922 12.2203 44.9974 12.0828C45.0027 11.9454 44.9701 11.8091 44.9033 11.6889C44.8364 11.5687 44.7378 11.4692 44.6183 11.4012L24.3672 0.090716C24.2567 0.0307202 24.1329 -0.000476557 24.0072 5.50294e-06ZM24.0015 1.61295L42.6085 11.988L33.0669 16.4583C33.0997 16.0227 33.0788 15.5848 33.0045 15.1543V10.7917C32.9938 10.4662 32.8648 10.1558 32.6417 9.91863C32.4471 9.70784 32.2168 9.53317 31.9613 9.40271C31.342 9.09372 30.6842 8.86874 30.0054 8.73372C28.435 8.37371 26.3316 8.16111 24.0015 8.16111C21.6685 8.16111 19.5652 8.37371 17.9919 8.73372C17.314 8.86895 16.6572 9.09392 16.0388 9.40271C15.7834 9.53317 15.553 9.70784 15.3585 9.91863C15.1363 10.1562 15.0084 10.4666 14.9985 10.7917V15.143C14.9673 15.3074 14.8964 15.7723 14.9389 16.4583L9.75144 14.0318V9.55862L24.0015 1.61295ZM29.6709 10.1936C30.2168 10.3041 30.7471 10.4811 31.2498 10.7208C31.3916 10.8002 31.4709 10.8626 31.5049 10.8966V13.5839C31.0207 13.3865 30.5198 13.2328 30.0082 13.1247C28.435 12.7647 26.3316 12.5549 23.9986 12.5549C21.6685 12.5549 19.5652 12.7647 17.9948 13.1218C17.4848 13.2304 16.9851 13.3821 16.5009 13.5754V10.8966C16.5773 10.8264 16.6632 10.7673 16.756 10.7208C17.0678 10.5508 17.6206 10.3552 18.3264 10.1936C19.7353 9.87327 21.7621 9.6635 24.0015 9.6635C26.2409 9.6635 28.2592 9.87327 29.6709 10.1936ZM8.24905 10.3977V13.3231L5.3945 11.9908L8.24905 10.3977ZM29.6681 14.5845C30.3767 14.7461 30.9323 14.9474 31.2498 15.1175C31.3462 15.1742 31.4738 15.2535 31.5049 15.2876C31.5082 15.3221 31.5148 15.3563 31.5248 15.3896C31.5418 15.4746 31.8735 17.3824 30.5893 18.8394H26.513C24.6875 18.8394 23.1482 17.4788 22.8761 15.7043C22.8443 15.5207 22.7454 15.3555 22.5986 15.2408C22.4518 15.1261 22.2676 15.07 22.0818 15.0834C21.896 15.0968 21.7218 15.1788 21.5931 15.3134C21.4643 15.4481 21.3902 15.6258 21.3851 15.812C21.3761 16.6151 21.052 17.3825 20.4825 17.9488C19.913 18.5152 19.1437 18.835 18.3406 18.8394H17.4108C16.0842 17.2803 16.4867 15.4009 16.4924 15.3017C16.5723 15.2284 16.662 15.1664 16.7588 15.1175C17.0706 14.9474 17.6121 14.7518 18.3179 14.593C19.7268 14.2699 21.7649 14.0545 24.0043 14.0545C26.2437 14.0545 28.262 14.2642 29.6737 14.5845H29.6681ZM22.2553 18.0911C22.727 18.7855 23.3618 19.3535 24.1041 19.7455C24.8464 20.1374 25.6736 20.3412 26.513 20.339H30.1698V23.3523C30.1698 26.7539 27.4315 29.5093 24.0015 29.5093C23.1914 29.5122 22.3888 29.3551 21.6396 29.0469C20.8905 28.7388 20.2096 28.2856 19.6362 27.7134C19.0627 27.1413 18.608 26.4615 18.2981 25.7131C17.9882 24.9646 17.8292 24.1623 17.8303 23.3523V20.339H18.3349C20.1973 20.339 21.5977 19.2363 22.2553 18.0911ZM8.25188 18.7487H9.75144V23.9986H8.24905L8.25188 18.7487ZM16.3308 21.6288V23.3551C16.3308 23.735 16.3591 24.1091 16.4102 24.472C15.8347 24.3784 15.3131 23.8002 15.3131 23.0405C15.3131 22.3403 15.7638 21.7563 16.3308 21.6288ZM31.6665 21.6288C32.2164 21.762 32.6842 22.3176 32.6842 23.0405C32.6842 23.8002 32.1739 24.3728 31.5843 24.4692C31.6388 24.1003 31.6663 23.728 31.6665 23.3551V21.6288ZM20.9967 30.405C21.9208 30.7962 22.9328 31.0088 23.9986 31.0088C25.0296 31.0127 26.0506 30.8083 27.0006 30.4079V32.6898L23.9958 35.6946L20.9967 32.6926V30.405ZM18.7431 32.5651L22.9385 36.7519L21.7507 37.9425L17.561 33.7471L18.7431 32.5651ZM29.2457 32.5651L30.4363 33.7556L26.2522 37.9453L25.056 36.7519L29.2457 32.5651ZM31.7601 34.5494C34.9491 34.8612 37.9227 36.8596 39.4705 40.0487C40.1506 41.4687 40.5013 43.0239 40.4966 44.5984V46.5033H35.2467V44.2554C35.2467 43.8302 34.9066 43.4957 34.4842 43.5013C34.3863 43.5024 34.2896 43.5228 34.1996 43.5613C34.1095 43.5998 34.028 43.6557 33.9595 43.7257C33.8911 43.7957 33.8371 43.8785 33.8007 43.9694C33.7642 44.0603 33.7461 44.1575 33.7472 44.2554V46.5033H14.2529V44.2554C14.2529 43.8302 13.9128 43.4957 13.4876 43.5013C13.3897 43.5024 13.2929 43.5228 13.2029 43.5613C13.1129 43.5998 13.0313 43.6557 12.9629 43.7257C12.8944 43.7957 12.8405 43.8785 12.804 43.9694C12.7676 44.0603 12.7494 44.1575 12.7506 44.2554V46.5033H7.50352V44.5984C7.50352 43.1924 7.76998 41.8714 8.26039 40.661C9.58136 37.3727 12.6117 34.9009 16.2401 34.5522L21.2206 39.5299C21.5155 39.8219 21.986 39.8219 22.2808 39.5299L24.0015 37.8121L25.7222 39.5299C26.017 39.8219 26.4875 39.8219 26.7795 39.5299L31.7601 34.5494Z" fill="black"/>
</g>
<defs>
<clipPath id="clip0_1284_7785">
<rect width="48" height="48" fill="white"/>
</clipPath>
</defs>
</svg>
