<svg width="21" height="21" viewBox="0 0 21 21" fill="none" xmlns="http://www.w3.org/2000/svg">
<g clip-path="url(#clip0_31_706)">
<path fill-rule="evenodd" clip-rule="evenodd" d="M9.25246 19.1703C4.46988 19.1703 0.582367 15.2823 0.582367 10.5002C0.582367 5.71806 4.46988 1.83008 9.25246 1.83008C11.6599 1.83008 13.9045 2.78973 15.564 4.54617C15.6 4.58243 15.6218 4.63031 15.6256 4.68122C15.6294 4.73213 15.6149 4.78272 15.5848 4.82392L16.0937 5.48922C16.1906 5.43939 16.317 5.45 16.3936 5.57134C17.4021 7.01866 17.9226 8.72712 17.9226 10.4997C17.9226 15.2823 14.035 19.1703 9.25246 19.1703ZM9.25246 17.3806C5.4623 17.3806 2.37157 14.2899 2.37157 10.5002C2.37157 6.71047 5.4623 3.61882 9.25246 3.61882C11.0578 3.61882 12.7658 4.31826 14.0507 5.57042C14.0722 5.58911 14.0898 5.61187 14.1025 5.63739C14.1152 5.66292 14.1227 5.6907 14.1246 5.71913C14.1265 5.74757 14.1227 5.7761 14.1135 5.80308C14.1043 5.83005 14.0899 5.85494 14.071 5.87631L14.7151 6.67586C14.8134 6.61819 14.9495 6.62373 15.027 6.74184C17.9512 11.1922 14.7779 17.3806 9.25246 17.3806Z" fill="#404040"/>
<path fill-rule="evenodd" clip-rule="evenodd" d="M9.48037 14.957C9.43456 14.9563 9.38999 14.9421 9.3523 14.916C9.3146 14.89 9.28547 14.8534 9.2686 14.8108C9.25245 14.7785 7.85357 11.1669 5.6902 9.80028C5.26712 9.54006 4.94185 9.2637 5.07196 8.64546C5.20207 8.04384 5.60853 7.70196 6.34073 7.53956C7.6418 7.26273 9.04114 9.27985 9.56111 10.1094C11.3835 7.45835 15.027 3.29401 20.33 2.80588C20.5856 2.77589 20.6806 3.15514 20.4439 3.26126C20.3627 3.29355 12.7824 6.75845 9.70782 14.8269C9.68484 14.8668 9.65167 14.8999 9.6117 14.9228C9.57173 14.9456 9.52641 14.9574 9.48037 14.957Z" fill="#00B42C"/>
</g>
<defs>
<clipPath id="clip0_31_706">
<rect width="20" height="20" fill="white" transform="translate(0.580994 0.5)"/>
</clipPath>
</defs>
</svg>
