<svg width="21" height="20" viewBox="0 0 21 20" fill="none" xmlns="http://www.w3.org/2000/svg">
<g clip-path="url(#clip0_1284_7847)">
<path d="M10.5 20C16.0228 20 20.5 15.5228 20.5 10C20.5 4.47715 16.0228 0 10.5 0C4.97715 0 0.5 4.47715 0.5 10C0.5 15.5228 4.97715 20 10.5 20Z" fill="#03A9F4"/>
<path d="M16.9777 5.98285C16.4904 6.19564 15.975 6.33701 15.4474 6.40258C16.0036 6.07276 16.4194 5.55023 16.6158 4.93416C16.0953 5.24316 15.5256 5.46077 14.9316 5.57758C14.5676 5.18831 14.0949 4.91757 13.575 4.80059C13.055 4.68361 12.5119 4.72581 12.0163 4.92168C11.5206 5.11755 11.0954 5.45804 10.7959 5.89886C10.4964 6.33968 10.3364 6.86043 10.3369 7.39337C10.335 7.59679 10.3558 7.79979 10.3987 7.99863C9.34212 7.94674 8.30834 7.67252 7.36492 7.19389C6.4215 6.71527 5.58966 6.043 4.92374 5.221C4.58145 5.80575 4.4754 6.49915 4.62728 7.15947C4.77915 7.8198 5.17748 8.39719 5.74084 8.77363C5.32035 8.7623 4.90876 8.64992 4.54084 8.446V8.47495C4.54202 9.08788 4.75418 9.68172 5.14164 10.1566C5.52911 10.6316 6.06826 10.9586 6.66847 11.0828C6.44133 11.1425 6.20726 11.1717 5.97242 11.1697C5.80332 11.1728 5.63438 11.1578 5.46847 11.125C5.64043 11.6521 5.97149 12.113 6.41611 12.4443C6.86073 12.7756 7.39707 12.961 7.95137 12.9749C7.01206 13.7091 5.8541 14.1079 4.66189 14.1078C4.44947 14.1097 4.23716 14.0973 4.02637 14.071C5.24199 14.8548 6.65895 15.2689 8.10531 15.2631C12.9935 15.2631 15.6658 11.2144 15.6658 7.70521C15.6658 7.58811 15.6658 7.47495 15.6566 7.36179C16.1771 6.98619 16.6247 6.51891 16.9777 5.98285Z" fill="white"/>
</g>
<defs>
<clipPath id="clip0_1284_7847">
<rect width="20" height="20" fill="white" transform="translate(0.5)"/>
</clipPath>
</defs>
</svg>
