<svg width="32" height="28" viewBox="0 0 32 28" fill="none" xmlns="http://www.w3.org/2000/svg">
<path fill-rule="evenodd" clip-rule="evenodd" d="M24.3029 20.2575C26.3553 20.5736 28.9208 20.4004 30.4375 19.7493C31.4345 19.3212 32 18.6635 32 17.9033C32 16.7143 31.5862 15.6153 30.885 14.7297C30.7919 14.6218 30.6608 14.5539 30.5189 14.5404C30.377 14.5269 30.2354 14.5688 30.1236 14.6573C30.0119 14.7458 29.9387 14.8741 29.9194 15.0153C29.9 15.1565 29.936 15.2997 30.0199 15.415C30.5854 16.1212 30.8945 16.9985 30.8966 17.9033C30.8966 18.1179 30.7481 18.2839 30.5429 18.4362C30.2257 18.6713 29.7738 18.8506 29.248 18.989C27.5862 19.4266 25.2177 19.4249 23.5669 18.9808C23.1219 18.3455 22.5948 17.7719 21.9994 17.2748C22.3244 15.2544 24.1892 13.7162 26.4232 13.7162C27.3567 13.7162 28.2246 13.9844 28.944 14.445C29.0671 14.52 29.2147 14.5438 29.3552 14.5113C29.4956 14.4788 29.6178 14.3926 29.6955 14.2712C29.7732 14.1498 29.8003 14.0028 29.771 13.8616C29.7418 13.7205 29.6584 13.5964 29.5388 13.5159C29.195 13.2953 28.8237 13.1104 28.4303 12.9664C28.7623 12.6791 29.0286 12.3237 29.211 11.9243C29.3934 11.525 29.4877 11.091 29.4874 10.6519C29.4872 10.1454 29.3614 9.64682 29.1213 9.20076C28.8812 8.75471 28.5344 8.37509 28.1118 8.09583C27.6892 7.81656 27.204 7.64636 26.6995 7.60043C26.195 7.5545 25.6871 7.63428 25.221 7.83263C24.5659 6.89896 23.6394 6.18952 22.5672 5.80063C22.8993 5.51341 23.1656 5.15801 23.348 4.75862C23.5304 4.35923 23.6247 3.92523 23.6243 3.48615C23.624 2.67354 23.301 1.8943 22.7264 1.3197C22.1518 0.745104 21.3726 0.422167 20.56 0.421875C19.7474 0.422167 18.9682 0.745104 18.3936 1.3197C17.819 1.8943 17.496 2.67354 17.4957 3.48615C17.4953 3.92523 17.5896 4.35923 17.772 4.75862C17.9544 5.15801 18.2207 5.51341 18.5528 5.80063C17.9728 6.01242 17.4315 6.3181 16.9506 6.70546C16.3231 6.57967 15.6769 6.57967 15.0494 6.70546C14.5685 6.3181 14.0272 6.01242 13.4472 5.80063C13.7793 5.51341 14.0456 5.15801 14.228 4.75862C14.4104 4.35923 14.5047 3.92523 14.5043 3.48615C14.504 2.67354 14.181 1.8943 13.6064 1.3197C13.0318 0.745104 12.2526 0.422167 11.44 0.421875C10.6274 0.422167 9.84815 0.745104 9.27355 1.3197C8.69895 1.8943 8.37602 2.67354 8.37572 3.48615C8.37535 3.92523 8.46957 4.35923 8.65199 4.75862C8.8344 5.15801 9.10073 5.51341 9.43283 5.80063C8.33931 6.20174 7.41297 6.91953 6.77903 7.83263C6.31294 7.63428 5.80496 7.5545 5.3005 7.60043C4.79604 7.64636 4.31082 7.81656 3.88821 8.09583C3.46559 8.37509 3.11876 8.75471 2.8787 9.20076C2.63865 9.64682 2.51285 10.1454 2.51255 10.6519C2.51218 11.091 2.6064 11.525 2.78882 11.9244C2.97123 12.3238 3.23755 12.6792 3.56966 12.9664C1.47862 13.7328 0 15.6605 0 17.9033C0 18.6635 0.565517 19.3212 1.56248 19.7493C3.07917 20.4004 5.64469 20.5736 7.6971 20.2575C7.19324 21.3376 6.9324 22.515 6.93297 23.7068C6.93297 24.5526 7.39586 25.2892 8.23559 25.8768C8.2948 25.9209 8.36227 25.9527 8.434 25.9703C8.50573 25.9879 8.58026 25.9909 8.65317 25.9791C8.72608 25.9674 8.79589 25.9411 8.85846 25.9019C8.92103 25.8626 8.97509 25.8112 9.01743 25.7507C9.05977 25.6902 9.08952 25.6218 9.10494 25.5496C9.12035 25.4774 9.12111 25.4028 9.10716 25.3302C9.09321 25.2577 9.06484 25.1887 9.02374 25.1274C8.98263 25.066 8.92963 25.0135 8.86786 24.973C8.36524 24.621 8.03641 24.2128 8.03641 23.7068C8.03641 19.5706 11.6132 16.2288 16 16.2288C20.3868 16.2288 23.9636 19.5706 23.9636 23.7068C23.9636 24.1526 23.7048 24.5234 23.3004 24.8467C22.7961 25.25 22.0761 25.57 21.2276 25.8216C18.5241 26.6216 14.5572 26.6922 11.621 26.0395C11.5497 26.0223 11.4757 26.0195 11.4034 26.0312C11.331 26.0429 11.2617 26.0688 11.1995 26.1076C11.1373 26.1464 11.0834 26.1972 11.0411 26.257C10.9987 26.3169 10.9687 26.3845 10.9528 26.4561C10.9369 26.5276 10.9354 26.6016 10.9484 26.6738C10.9614 26.7459 10.9887 26.8147 11.0286 26.8762C11.0685 26.9377 11.1203 26.9906 11.1809 27.0319C11.2415 27.0731 11.3097 27.1019 11.3815 27.1165C15.0179 27.9253 20.1423 27.6671 22.8905 26.3755C24.2659 25.7295 25.067 24.8037 25.067 23.7068C25.067 22.4809 24.7945 21.314 24.3029 20.2575ZM10.0006 17.2748C9.67559 15.2544 7.81076 13.7162 5.57683 13.7162C3.11669 13.7162 1.10345 15.5833 1.10345 17.9033C1.10345 18.1179 1.25186 18.2839 1.4571 18.4362C1.77434 18.6713 2.22621 18.8506 2.752 18.989C4.41379 19.4266 6.78234 19.4249 8.4331 18.9808C8.87827 18.3457 9.4053 17.7721 10.0006 17.2748ZM11.552 13.25C10.2019 13.2599 8.84303 13.0845 7.8229 12.7358C7.74744 12.8167 7.66788 12.8937 7.58455 12.9664C9.24469 13.5755 10.5192 14.9162 10.9738 16.5653C11.7319 16.0865 12.5556 15.7204 13.419 15.4784C13.1215 15.2892 12.8458 15.0678 12.597 14.818C12.1482 14.3698 11.793 13.8368 11.552 13.25ZM24.4154 12.9664C24.332 12.8938 24.2524 12.8168 24.1771 12.7358C23.157 13.0845 21.7975 13.2599 20.448 13.2506C20.2059 13.8389 19.8492 14.3733 19.3986 14.8224C19.1508 15.0703 18.8766 15.2903 18.581 15.4784C19.4444 15.7203 20.2681 16.0864 21.0262 16.5653C21.4808 14.9162 22.7553 13.575 24.4154 12.9664ZM24.3007 8.44174C23.499 7.30022 22.1208 6.55043 20.56 6.55043C19.7453 6.54778 18.9441 6.75794 18.2356 7.16008C18.6554 7.38077 19.0499 7.66767 19.403 8.02132C19.5035 8.12545 19.559 8.26486 19.5576 8.40952C19.5563 8.55418 19.4981 8.69252 19.3958 8.79474C19.2934 8.89696 19.155 8.95489 19.0103 8.95604C18.8657 8.9572 18.7263 8.90149 18.6223 8.80091C17.9276 8.10592 16.9853 7.71519 16.0026 7.71457C15.0199 7.71395 14.0772 8.10349 13.3815 8.7976C12.6865 9.49229 12.2956 10.4345 12.2949 11.4172C12.2942 12.3999 12.6836 13.3427 13.3777 14.0384C14.0724 14.7334 15.0147 15.1241 15.9974 15.1248C16.9801 15.1254 17.9228 14.7358 18.6185 14.0417C19.1427 13.5178 19.498 12.8489 19.6385 12.1212C19.779 11.3935 19.6983 10.6404 19.4069 9.95898C19.3535 9.82527 19.3544 9.67596 19.4096 9.54295C19.4647 9.40994 19.5697 9.30376 19.7021 9.24708C19.8344 9.1904 19.9837 9.18772 20.118 9.2396C20.2524 9.29149 20.3611 9.39383 20.421 9.52477C20.7733 10.3508 20.8886 11.2587 20.7537 12.1466C21.7661 12.1333 22.7669 12.0108 23.5702 11.773C23.3482 11.2079 23.2991 10.5895 23.4292 9.99638C23.5592 9.40326 23.8626 8.86216 24.3007 8.44174ZM26.4232 8.69056C26.9432 8.691 27.4417 8.89781 27.8094 9.26556C28.177 9.63331 28.3837 10.1319 28.384 10.6519C28.3837 11.1719 28.177 11.6705 27.8094 12.0381C27.4417 12.4058 26.9431 12.6125 26.4232 12.6128C25.9032 12.6125 25.4045 12.4058 25.0368 12.0382C24.669 11.6705 24.4622 11.1719 24.4618 10.6519C24.4621 10.1318 24.6688 9.63313 25.0366 9.26536C25.4044 8.8976 25.9031 8.69086 26.4232 8.69056ZM5.57683 8.69056C6.09693 8.69086 6.59564 8.8976 6.96341 9.26536C7.33118 9.63313 7.53791 10.1318 7.53821 10.6519C7.53777 11.1719 7.33097 11.6705 6.96321 12.0382C6.59546 12.4058 6.09683 12.6125 5.57683 12.6128C5.05687 12.6125 4.5583 12.4058 4.19064 12.0381C3.82297 11.6705 3.61629 11.1719 3.616 10.6519C3.61629 10.1319 3.82295 9.63331 4.1906 9.26556C4.55825 8.89781 5.05682 8.691 5.57683 8.69056ZM13.7644 7.16008C13.0559 6.75794 12.2547 6.54778 11.44 6.55043C9.87917 6.55043 8.50097 7.30022 7.69931 8.44174C7.99749 8.72742 8.23472 9.07054 8.39668 9.4504C8.55863 9.83026 8.64197 10.239 8.64165 10.6519C8.64165 11.0475 8.56662 11.4255 8.42979 11.773C9.2331 12.0108 10.2339 12.1333 11.2463 12.1466C11.1317 11.4002 11.1947 10.6372 11.4301 9.91973C11.6656 9.20221 12.0668 8.55031 12.6014 8.01691C12.9437 7.67437 13.3358 7.38551 13.7644 7.16008ZM20.56 1.52532C21.072 1.53747 21.5589 1.74939 21.9167 2.11579C22.2745 2.48219 22.4749 2.97402 22.4749 3.48615C22.4749 3.99828 22.2745 4.49011 21.9167 4.85651C21.5589 5.22291 21.072 5.43483 20.56 5.44698C20.048 5.43483 19.5611 5.22291 19.2033 4.85651C18.8454 4.49011 18.6451 3.99828 18.6451 3.48615C18.6451 2.97402 18.8454 2.48219 19.2033 2.11579C19.5611 1.74939 20.048 1.53747 20.56 1.52532ZM11.44 1.52532C11.952 1.53747 12.4389 1.74939 12.7967 2.11579C13.1545 2.48219 13.3549 2.97402 13.3549 3.48615C13.3549 3.99828 13.1545 4.49011 12.7967 4.85651C12.4389 5.22291 11.952 5.43483 11.44 5.44698C10.928 5.43483 10.4411 5.22291 10.0833 4.85651C9.72545 4.49011 9.52514 3.99828 9.52514 3.48615C9.52514 2.97402 9.72545 2.48219 10.0833 2.11579C10.4411 1.74939 10.928 1.53747 11.44 1.52532Z" fill="black"/>
<path d="M9.98044 26.6918C10.2851 26.6918 10.5322 26.4448 10.5322 26.1401C10.5322 25.8354 10.2851 25.5884 9.98044 25.5884C9.67573 25.5884 9.42871 25.8354 9.42871 26.1401C9.42871 26.4448 9.67573 26.6918 9.98044 26.6918Z" fill="black"/>
</svg>
